<svg id="Слой_1" data-name="Слой 1" xmlns="http://www.w3.org/2000/svg" viewBox="0 0 338.28 338.28"><defs><style>.cls-1{fill:#fdfefe;}.cls-2{fill:#e8f2fb;}.cls-3{fill:#e6f1fb;}.cls-4{fill:#668bbe;}.cls-5{fill:#436eaf;}.cls-6{fill:#fbd378;}.cls-7{fill:#5783c2;}.cls-8{fill:#c5d7eb;}.cls-9{fill:#2b4e96;}.cls-10{fill:#99a7b7;}.cls-11{fill:#353d74;}.cls-12{fill:#fcecb1;}.cls-13{fill:#e1e5ea;}.cls-14{fill:#4b668e;}.cls-15{fill:#e68b7e;}.cls-16{fill:#f9fafb;}</style></defs><title>graphic-design-creative-process-concept_23-2148106486</title><path class="cls-1" d="M103.07,42.38q0-82-.08-164c0-3.9.38-5.27,5-5.27q164,.27,328,.06c3.89,0,5.27.38,5.26,5q-.27,164,0,328c0,3.89-.38,5.27-5,5.26q-164-.27-328,0c-3.89,0-5.29-.38-5.27-5C103.15,151.71,103.07,97.05,103.07,42.38ZM253-36.78a1.88,1.88,0,0,0-2,2c-1.37.61-2.26,2.17-4,2.05a8.79,8.79,0,0,0-2.46-1.62c-1.64-.37-3.88-2.49-4.88-.57-1.44,2.8,2.43,1.59,3.31,3,.37.59,1.35.81,2.06,1.2-.21,2.42-2.2,3.41-3.72,4.85-2.64,2.49-6.38,3.69-8.3,7-2.1.63-5-1.28-6.28,2-2.46,1.13-4.81,2.7-7.75,2.06a10.83,10.83,0,0,0-1.78-.71c-1.11-.25-2.75,1.48-3.3-.68-.43-1.69,1.49-1.31,2.18-2,2.91-2.82-4.58-4.52-.95-7.6a11.33,11.33,0,0,0-1.47-1.22c-.18-.12-.64,0-.89.21-3.7,2.59-2.38-2.27-4.17-2.84-2.78-.88-1.68,4.16-5.29,2.71-5.09-2,.76,7.26-5,5.61a5.75,5.75,0,0,0,.22,1.88c.15.33,1.19.37,1.22.61.47,3.45,1.91,6,5.68,6.53a7,7,0,0,1,0,1A3.61,3.61,0,0,1,203-9.74C194.52-7.16,186-4.61,178.71.87c-6.29,4.7-10.69,10-10.77,18.46-.05,5.38,2.13,10,3.43,15,1.85,7-1.24,11.85-5.82,16.21-5.46,5.22-13,7.06-19,11.52-6.16,4.59-11.58,9.85-12.27,17.87-.82,9.44-.81,19.09,3.27,27.87,2.95,6.35,6.36,12.79,13.67,15.52.29,1.19-1.4,2.55-.08,3.47s1.71-.94,2.62-1.39a6.16,6.16,0,0,1,1.38-.31c.91,1.64,2.56,1.8,4.15,2.28,4.09,1.25,8.15,2.59,12.14,4.1,11.79,4.49,23.54,9.11,35.9,11.9l-.16,1.82c1.13,1.88,3,1.12,4.52,1.13q57.42.06,114.83,0c1.53,0,3.42.77,4.44-1.24,0-.19,0-.38,0-.57-.12-3.62,2.45-3.31,4.79-3.2,10.17.48,20.22-.34,29.73-4.1,4.27-1.69,9.47-2.45,11.63-7.59l9-.43c4.61,1.1,6-1.36,5.81-5.37a43,43,0,0,0-.95-5.32c5.25-7.23,10.2-14.62,13.95-22.8,6.38-13.89,5.62-27.31-3.59-39.39-8.15-10.68-9.1-16.72-1.87-27.7A10.46,10.46,0,0,0,400.64,27c5.29-12.43,3.92-27.42-11.54-31.5C375.91-8,368.84-15.26,366.86-28.94c-2.74-18.81-13.42-32.42-30.58-40.68C322.93-76,309-74.47,295-72.24c-8.23,1.31-15.07,5.64-22.11,9.62l-2.47-.19c.15-.47.55-1.07.4-1.41-1-2.1-4.25-3.72-1.09-6.62.36-.33-.62-1.84-1.35-1.72-2.51.43-4.34,1.63-4.63-2.91-.12-2-5.05,3.75-8.1.32-.14-.16-1.64.91-1.18,1.76,2.47,4.51-2.49,2.72-3.54,4.23-1.83,2.64,4.16,2.58,1.57,6.46s6.83.78,5.43,6c-.08.29,1.82.86,2.39-.36,1.77-3.78,3.23-1,4.77.17a6.82,6.82,0,0,1-1.71,5.41c-2.22,2.39-4.07,5.11-6.08,7.69-2.13-3.9-4.28-7.78-6.36-11.7-.48-.9-1.12-1.28-2-.87-.69.34-.6,1.1-.33,1.75a24.14,24.14,0,0,0,1.61,4.08c1.92,3,4.47,5.81,4.91,9.61L255-38.78A1.89,1.89,0,0,0,253-36.78Zm-8.95,228.05H242c-1.87-.83-3.36-3.21-5.94-.57-.67.68-3.45,1.63-4.86,1.07-3.5-1.39-5.24,1.06-7.56,2.6,2.27,0,4.52-.86,6.61.4,3.65,2.19,7.14,1.38,10.6-.47,1.15.17.87,4,3.17,1.27l.89.59c2.26.06,3.35-1.13,3.06-3.28s-1.78-.38-2.67-.67A1.12,1.12,0,0,0,244.09,191.27Zm69,4,4.36-3.62-4.33-.4-1.11.13c-2.34-1.25-3.09,4.76-5.18,1.54-1.51-2.32-3.14-1.22-4.7-1.66-3.13-1.12-3.14,2.7-5.31,3.29a28.22,28.22,0,0,1,5.3-.31c1,.24,2.12-2,2.87-.36,1.94,4.1,4.45,1.67,6.85.89Zm-54.73-2.92c1.93-.46,1.35,2.5,3.62,2.31,0-1.87.95-4.22-.43-5.44-1.18-1.05-2.88,1.09-4.45,1.54-1.61.89-3-1.54-4.6-.37-1.09.79-3.33,1.16-2.11,3,.75,1.15,2.31,3.13,3.77,2.31S259.12,196.07,258.31,192.35ZM232.07-30.77l.13.13-.14-.11C232.14-39,221.46-48.58,213.8-47c-1.84.38-3.56,3-2.69,4,3.41,3.77,5.56,9.26,11.29,10.27C225.64-32.14,228.89-31.62,232.07-30.77ZM287,189.14c-3.9-2.72-7.11-2-10.24,1.09,2.32,1.47,2.55,5.58,5.91,5.5C287,195.64,284.18,190.57,287,189.14Zm3.94,6.43c1.29-2.19,1.91-4.39,1-6.83a1.64,1.64,0,0,0-1.37,0c-1.93,2-.59,4.21-.24,6.35C290.29,195.23,290.52,195.31,290.89,195.57Z" transform="translate(-102.93 126.89)"/><path class="cls-2" d="M257.3-43.77c2-2.58,3.86-5.3,6.08-7.69a6.82,6.82,0,0,0,1.71-5.41c1.23-.79,2.38-1.42,1.58-3.38-1-2.43.55-2.76,2.53-2.32,0,4.77,0,9.55,0,14.33,0,1.34.1,2.93,1.87,3s2-1.54,2-2.89c0-4.82-.07-9.64-.12-14.45,7-4,13.88-8.31,22.11-9.62,14-2.23,27.93-3.8,41.28,2.62,17.16,8.26,27.84,21.87,30.58,40.68,2,13.68,9.05,20.92,22.24,24.39C404.56-.47,405.93,14.52,400.64,27a10.46,10.46,0,0,1-1.17,1.61c-7.23,11-6.28,17,1.87,27.7,9.21,12.08,10,25.5,3.59,39.39-3.75,8.18-8.7,15.57-13.95,22.8-2-1.16-4.33-.55-6.48-.91,1.67-8.5.54-9.94-7.92-10.16-.49,0-1-.07-1.46-.11,3.1-7.19,1.39-9.85-6.31-10-1.6,0-3.31.5-4.75-.69.74-2,1.41-4,2.23-6,1.12-2.7,1.12-6.11,4.57-7.37,1.25-4.24.55-7-4.74-6.17-.11-.65-.21-1.3-.32-1.94,4.89-11.43,0-19.68-12.65-21.27-1.46-.19-1-1.43-1.65-2.06V48.67a317.6,317.6,0,0,0,0-31.77c-.45-2-1.27-3.72-3.47-4.32-1.81-.13-3.63-.38-5.44-.38q-28.92-.12-57.85-.17c.68-5,3.12-9.16,5.88-13.27,4.87-7.26,7.77-14.41,4.89-23.93-4.33-14.3-22.38-22.33-35.71-15-1.49.82-2.81,1.64-4.52,1.64l-.22-.23.12-2.12C257.2-40.86,257-42.48,257.3-43.77ZM327.13,7.29c2.34-.13,4.77.41,6.94-.93,6.75-.48,6.76-.48,5.79-7.24-.16-1.15-.48-2.28-.65-3.42-.32-2.21.23-5.33-3.1-5.24-3.05.09-6.61,0-8.26,3.69a12.14,12.14,0,0,1-2.43-.25c-9.23-3-10.29-2.22-9.28,7C317.09,9.49,317.51,9.73,327.13,7.29ZM305.65-61.9c-2.33.38-3.57-4.11-6.07-1.47-2.27,2.39-1.3,5.39-.18,8,2.6,6,7.51,9.25,13.81,10,5.64.69,9-3.89,7.24-9.34a17.59,17.59,0,0,0-10.27-10.86c-1.32-.57-2.81-1.51-4.25-.63C304-65,306.79-63.56,305.65-61.9Zm32.9,37.49c-4.42-.52-3.32-4.39-4.32-4.71-1.75-.56-3.81-.11-5.07-2.06a5.62,5.62,0,0,1-5.33,2.57c.06,2,.11,4-1.73,5.35,1.76,1.3,2.93,2.88,2.47,5.23a5.47,5.47,0,0,1,5.5,1.83c1-2.35,3.9-1.65,5-2.82S334.75-22.93,338.55-24.41ZM316-37c3.35.74,5.61,0,6.63-2.32,2.78-6.4,7.11-11.86,10.45-17.91.69-1.25,2-2.37,1.24-4.86Zm-6.73,26.36c-4.72-1.07-6.08,1.48-6.2,3.63-.13,2.53,1.86,5.4,4.39,5.38s5.17-1.28,5-5.37C312.38-10.77,309.85-10.25,309.28-10.67ZM286.07-40.85c4.17-4.18,5.4-9.56,8.28-13.95a1,1,0,0,0-.41-1.63c-.78-.3-1.95-.36-2.24.43C290-51.08,285.65-47.13,286.07-40.85ZM316.5-16.94l-.18-1.24H299.59C305.25-15.18,310.88-15.89,316.5-16.94ZM311.15,4.2A16.67,16.67,0,0,1,305,.35C303.69-1,302.53,0,301.63.92a1.17,1.17,0,0,0,.51,2C304.91,3.34,307,6.85,311.15,4.2Zm-5.57-41.76c-3.47.67-5.7,2.61-8.16,4-.5.29-1.11.89-.7,1.63a1,1,0,0,0,1.62.36C300.77-33.18,304.48-33.13,305.58-37.56Z" transform="translate(-102.93 126.89)"/><path class="cls-2" d="M219-14.74c2.94.64,5.29-.93,7.76-2.06,5.29.82,10.56,1.11,15.72-.3l0-1.72h-9.48c1.92-3.34,5.66-4.54,8.3-7,1.52-1.44,3.51-2.43,3.72-4.85,1.28-.07,2-.67,2-2,1.74.12,2.63-1.44,4-2.05l.22.21c0,1.58-1,2.67-1.69,4-4.43,8.42-4.91,17.19,0,25.39,3.4,5.73,7,11.25,9.29,17.55l-60.27-.17c-1,0-2-.16-2.65.89l-.06-.21a3,3,0,0,0-2.57,2.35l-.5.9c-1.36,1.92-.32,4.17-.84,6.2a2.48,2.48,0,0,0,0,3.87q0,19.56,0,39.14l-1.18,1.46c-1.74-.4-4.18-1.37-4.31,1.34-.16,3.45,2.78,1.59,4.46,1.82l.15,1.37h-3.92c-1.48-.08-3-.06-3.77-1.74-.51-1.17-.7-2.94-2.57-1.91-2.13,1.17,1.18,2.36.18,3.65-2.45,1.08-1.58,3.27-1.75,5.15-.46,5.34,2.47,10.62.28,16-1.55-.59-2.12-1.76-2.51-3.36-.83-3.51-2-6.95-3-10.41-.5-1.67-1.38-3.42-3.31-3-2.11.52-.86,2.31-.77,3.72.29,4.68,2.51,8.87,3.16,13.44l-2,.4c-2.09,1.21-.54,3.35-1.23,4.91l-.76,0c-6.89-4-12.75-3.31-17.88,2a14.69,14.69,0,0,0-1.51,18.6c.92,1.37,3.14,2.24,1.48,4.44-7.32-2.73-10.73-9.17-13.68-15.52-4.08-8.78-4.09-18.43-3.27-27.87.69-8,6.11-13.28,12.27-17.87,6-4.46,13.56-6.3,19-11.52,4.58-4.36,7.67-9.22,5.82-16.21-1.3-4.91-3.48-9.57-3.43-15C168,10.89,172.42,5.57,178.71.87,186-4.61,194.52-7.16,203-9.74a3.57,3.57,0,0,0,2.41-1.54c2.68.68,3.86,3,4.8,5.12.82,1.81-1.66,1.91-2.59,2.86-1.18,1.2-1.23,3,.88,3.31,2.67.37,4.43.82,2.46,3.88-.79,1.22.09,1.78.85,2.42,1,.85,1.72.41,2.45-.49,1.65-2,3.07-1.86,3.87.68.42,1.33,1,2,2.48,1.71,1.28-.23,1.45-1.09,1.5-2.17.11-2.45,1.18-3.39,3.52-2.06a1.87,1.87,0,0,0,2.61-.5c1.12-1.25.3-2-.53-2.91-1.48-1.66-1.23-3,1.07-3.59,1.26-.34,2-.94,1.65-2.48s-1.34-1.45-2.61-1.43c-2.15,0-3.16-1-2-3.14.59-1,1.35-1.87,0-2.95s-2.21-.2-3.38.58C219.92-10.71,219-12.14,219-14.74Zm12.1,18.93c4.19,2.67,6.38-1,9.24-1.52.2,0,.46-.89.36-1.28-.26-1.1-1.26-1.1-2-.79C236.36,1.63,234,2.8,231.13,4.19Z" transform="translate(-102.93 126.89)"/><path class="cls-3" d="M207.31,143.32c-12.36-2.79-24.11-7.41-35.9-11.9-4-1.51-8-2.85-12.14-4.1-1.59-.48-3.24-.64-4.15-2.27l9.87.12a7,7,0,0,0,4.86-.84c.55,1.21-.43,2.93,1.26,3.76a120.91,120.91,0,0,0,23.91,0c2.24-2.33.46-5.28,1.19-7.85a1.89,1.89,0,0,0,.88-.13l66,.15.29.15.31-.11c-.3,3.71-2.67,6.26-5,8.84a6.68,6.68,0,0,0-1.49.07c-1.52.41-4.14-1.09-4.15,2s2.57,2,4.12,2c5.49.13,11,.05,16.48.05,5.16,0,10.32,0,15.48,0,1.32,0,2.75.12,2.83-1.88s-1.1-2.21-2.58-2.13a7.29,7.29,0,0,1-4.29-1,15.44,15.44,0,0,1-4.19-7,1.27,1.27,0,0,0,.23-.82l37.86,0v-.17c0,1.66-.06,3.32,0,5,.06,2.77,1.19,4.12,4.28,4.09,16.93-.17,33.86-.16,50.79-.21l3.07.44c-2.16,5.14-7.36,5.9-11.63,7.59-9.51,3.76-19.56,4.58-29.73,4.1-2.34-.11-4.91-.42-4.79,3.2-1.37-2.23-4.19-1.77-6-3.2a23.88,23.88,0,0,0-15.08-5.07c-27.11.2-54.22.07-81.34.12-1.92,0-4-.66-5.74.82Z" transform="translate(-102.93 126.89)"/><path class="cls-4" d="M219-14.74c0,2.6.89,4,3.49,2.3,1.17-.78,1.94-1.73,3.38-.58s.59,1.9,0,2.95c-1.2,2.13-.19,3.18,2,3.14,1.27,0,2.23-.15,2.61,1.43s-.39,2.14-1.65,2.48c-2.3.63-2.55,1.93-1.07,3.59.83.93,1.65,1.66.53,2.91a1.87,1.87,0,0,1-2.61.5c-2.34-1.33-3.41-.39-3.52,2.06-.05,1.08-.22,1.94-1.5,2.17-1.44.27-2.06-.38-2.48-1.71-.8-2.54-2.22-2.69-3.87-.68-.73.9-1.43,1.34-2.45.49-.76-.64-1.64-1.2-.85-2.42,2-3.06.21-3.51-2.46-3.88-2.11-.28-2.06-2.11-.88-3.31.93-1,3.41-1,2.59-2.86-.94-2.09-2.12-4.44-4.8-5.12a6,6,0,0,0,0-1c-3.77-.57-5.21-3.08-5.68-6.53,0-.24-1.07-.28-1.22-.61a5.75,5.75,0,0,1-.22-1.88c5.78,1.65-.07-7.65,5-5.61,3.61,1.45,2.51-3.59,5.29-2.71,1.79.57.47,5.43,4.17,2.84.25-.17.71-.33.89-.21a11.33,11.33,0,0,1,1.47,1.22c-3.63,3.08,3.86,4.78.95,7.6-.69.68-2.61.3-2.18,2,.55,2.16,2.19.43,3.3.68A10.83,10.83,0,0,1,219-14.74ZM222.7-3.66c-.49-2.13-1.75-3.76-4-3.75-2.54,0-3.92,1.71-3.76,4.27.14,2.4,1.62,3.55,4,3.44S222.32-1.46,222.7-3.66ZM207.61-16.85c1.85-.31,3.19-1.31,3.19-3.22s-1.4-2.9-3.32-2.87a2.81,2.81,0,0,0-2.92,2.81C204.44-18.18,205.77-17.19,207.61-16.85ZM213-10.08c1.19-.19,2.27-.68,2.12-1.78-.34-2.65-3.11,0-4.2-1.75-.34-.54-1.89.06-1.6,1C209.8-10.94,211.87-11.06,213-10.08Z" transform="translate(-102.93 126.89)"/><path class="cls-5" d="M325,141.26c1.8,1.43,4.62,1,6,3.2,0,.19,0,.38,0,.57-1,.07-2,.21-3,.21q-57.75,0-115.48,0a33.51,33.51,0,0,1-3.46-.35c.67-2.34,2.63-1.57,4.13-1.6,4.29-.09,8.58,0,12.87,0l5-2,0,0c2.34,2.25,4.66.14,7,0l0,0c1.82,4.47,4.82,1.14,7.14.89,5.94-.66,11.85.06,17.75.21,5.69.15,11.32-.81,17.06-.43,2.8.19,6.2,1.59,9-.65l.06-.07c2.08.32,4,1.21,6.28.88,3.13-.45,6.44.13,9.52-.12,6-.49,12,1.55,17.9-.53Z" transform="translate(-102.93 126.89)"/><path class="cls-4" d="M269.2-62.57c-2-.44-3.51-.11-2.53,2.32.8,2-.35,2.59-1.58,3.38-1.54-1.14-3-4-4.77-.17-.57,1.22-2.47.65-2.39.36,1.4-5.24-8-2.23-5.43-6s-3.4-3.82-1.57-6.46c1-1.51,6,.28,3.54-4.23-.46-.85,1-1.92,1.18-1.76,3,3.43,8-2.27,8.1-.32.29,4.54,2.12,3.34,4.63,2.91.73-.12,1.71,1.39,1.35,1.72-3.16,2.9.13,4.52,1.09,6.62.15.34-.25.94-.39,1.41Zm-5.09-3.68c-.28-2.08-1.43-3.38-3.51-3.36a3.11,3.11,0,0,0-3.21,3.07A3.17,3.17,0,0,0,260.58-63C262.65-62.85,263.8-64.23,264.11-66.25Z" transform="translate(-102.93 126.89)"/><path class="cls-6" d="M165,125.17l-9.87-.12a5.65,5.65,0,0,0-1.38.3c-.91.45-1.39,2.25-2.62,1.39s.37-2.28.09-3.47c1.66-2.2-.56-3.07-1.48-4.44a14.69,14.69,0,0,1,1.51-18.6c5.13-5.3,11-6,17.88-2,0,1-.05,2-.07,3.06l-3.68-1.4c-5-1.83-10.19.31-13.45,5.51-2,3.12-1,10,1.57,12.86,4.63,5.09,10,3.59,15.49,2C170,123.84,166.1,123.36,165,125.17Z" transform="translate(-102.93 126.89)"/><path class="cls-4" d="M232.07-30.76c-3.18-.86-6.43-1.38-9.67-1.95-5.73-1-7.88-6.5-11.29-10.27-.87-1,.85-3.63,2.69-4,7.66-1.59,18.34,8,18.26,16.24Z" transform="translate(-102.93 126.89)"/><path class="cls-7" d="M377.1,129.57l-3.07-.44c.05-3.26.09-6.52.14-9.78l10.93-.07c3.81,2.06,4.13,5.07,1,9.86Z" transform="translate(-102.93 126.89)"/><path class="cls-8" d="M209,144.89a33.51,33.51,0,0,0,3.46.35q57.74,0,115.48,0c1,0,2-.14,3-.21-1,2-2.91,1.23-4.44,1.24q-57.4.06-114.83,0c-1.53,0-3.39.75-4.52-1.13Z" transform="translate(-102.93 126.89)"/><path class="cls-9" d="M386.12,129.14c3.11-4.79,2.79-7.8-1-9.86-1.11-1.41-2.7-1-4.13-1-9.91,0-19.82,0-29.73.06l-.13-.07a3.33,3.33,0,0,0,.08-.84l33.3.11c2.16.36,4.45-.25,6.49.91a43,43,0,0,1,.95,5.32C392.15,127.78,390.73,130.24,386.12,129.14Z" transform="translate(-102.93 126.89)"/><path class="cls-10" d="M240.88,194.31c-3.46,1.85-6.95,2.66-10.6.47-2.09-1.26-4.34-.44-6.61-.4,2.32-1.54,4.06-4,7.56-2.6,1.41.56,4.19-.39,4.86-1.07,2.58-2.64,4.07-.26,5.95.57l.15,2.82Zm-6.67-2.16c-.42.52-.89.85-.88,1.15s.52.72.85.77a3.37,3.37,0,0,0,1.28-.35Z" transform="translate(-102.93 126.89)"/><path class="cls-11" d="M287,189.14c-2.77,1.43.06,6.5-4.33,6.59-3.36.08-3.59-4-5.91-5.5C279.84,187.15,283.05,186.42,287,189.14Z" transform="translate(-102.93 126.89)"/><path class="cls-12" d="M269.2-62.57l1.23-.24,2.46.19c.05,4.81.12,9.63.12,14.45,0,1.35-.19,2.92-2,2.89s-1.86-1.62-1.87-3C269.16-53,269.19-57.8,269.2-62.57Z" transform="translate(-102.93 126.89)"/><path class="cls-9" d="M209,144.89l-1.87.25c.06-.61.11-1.21.16-1.82l15.49-6.19c1.41.34,3.07-.36,4.24,1a39.09,39.09,0,0,0-9.15,3.69c2.73,1.29,5.81-.91,8.13,1.42-4.29,0-8.58-.06-12.87,0C211.65,143.32,209.69,142.55,209,144.89Z" transform="translate(-102.93 126.89)"/><path class="cls-12" d="M257.3-43.77c-.27,1.29-.1,2.91-2.14,2.87-.44-3.8-3-6.59-4.91-9.61a24.14,24.14,0,0,1-1.61-4.08c-.27-.65-.36-1.41.33-1.75.85-.41,1.49,0,2,.87C253-51.55,255.17-47.67,257.3-43.77Z" transform="translate(-102.93 126.89)"/><path class="cls-11" d="M311.79,194.77c-2.4.78-4.91,3.21-6.85-.89-.75-1.59-1.84.6-2.87.36,0-1,0-2,0-3,1.56.44,3.19-.66,4.7,1.66,2.09,3.22,2.84-2.79,5.18-1.54C311.91,192.51,311.85,193.64,311.79,194.77Z" transform="translate(-102.93 126.89)"/><path class="cls-12" d="M233.06-18.82h9.48l0,1.72c-5.16,1.41-10.43,1.12-15.72.3C228-20.1,231-18.19,233.06-18.82Z" transform="translate(-102.93 126.89)"/><path class="cls-10" d="M258.31,192.35c.81,3.72-2.74,2.55-4.2,3.38s-3-1.16-3.77-2.31c-1.22-1.87,1-2.24,2.11-3,1.64-1.17,3,1.26,4.6.38A1.78,1.78,0,0,1,258.31,192.35Z" transform="translate(-102.93 126.89)"/><path class="cls-11" d="M290.89,195.57c-.37-.26-.6-.34-.62-.44-.35-2.14-1.69-4.34.24-6.35a1.64,1.64,0,0,1,1.37,0C292.8,191.18,292.18,193.38,290.89,195.57Z" transform="translate(-102.93 126.89)"/><path class="cls-12" d="M247.05-32.72c0,1.35-.69,1.95-2,2-.71-.39-1.69-.61-2.06-1.2-.88-1.42-4.75-.21-3.31-3,1-1.92,3.24.2,4.88.57A8.79,8.79,0,0,1,247.05-32.72Z" transform="translate(-102.93 126.89)"/><path class="cls-8" d="M258.31,192.35a1.78,1.78,0,0,0-1.26-1.58c1.57-.46,3.27-2.6,4.45-1.55,1.38,1.22.41,3.57.43,5.44C259.66,194.85,260.24,191.89,258.31,192.35Z" transform="translate(-102.93 126.89)"/><path class="cls-10" d="M302.08,191.26c0,1,0,2,0,3a28.22,28.22,0,0,0-5.3.31C298.94,194,299,190.14,302.08,191.26Z" transform="translate(-102.93 126.89)"/><path class="cls-13" d="M245.33,192.22c.89.29,2.39-1.36,2.67.67s-.8,3.34-3.06,3.28Z" transform="translate(-102.93 126.89)"/><path class="cls-11" d="M313.07,191.25l4.33.4L313,195.27Z" transform="translate(-102.93 126.89)"/><path class="cls-14" d="M240.88,194.31l1.31-.21,1.85.17v1.31C241.75,198.27,242,194.48,240.88,194.31Z" transform="translate(-102.93 126.89)"/><path class="cls-13" d="M244,194.27l-1.85-.17-.15-2.82h2.05C244.07,192.27,244.05,193.27,244,194.27Z" transform="translate(-102.93 126.89)"/><path class="cls-11" d="M244,194.27c0-1,0-2,.05-3a1.12,1.12,0,0,1,1.24.95l-.39,3.95-.89-.59C244,195.14,244,194.71,244,194.27Z" transform="translate(-102.93 126.89)"/><path class="cls-2" d="M251.05-34.77a1.88,1.88,0,0,1,2-2l.18.18a1.9,1.9,0,0,1-1.95,2Z" transform="translate(-102.93 126.89)"/><path class="cls-10" d="M313.07,191.25l0,4-1.25-.5c.06-1.13.12-2.26.17-3.39Z" transform="translate(-102.93 126.89)"/><path class="cls-2" d="M253-36.78a1.89,1.89,0,0,1,2-2l.22.23a1.83,1.83,0,0,1-2,1.95Z" transform="translate(-102.93 126.89)"/><polygon class="cls-4" points="129.13 96.14 129.27 96.24 129.14 96.12 129.13 96.14"/><path class="cls-9" d="M196.21,120.28c-.73,2.57,1,5.52-1.19,7.85-1.35-1.38-3.08-.83-4.66-.84-6.4-.06-12.8,0-19.2,0q0-17,0-34l2-.4,6.37.19,5.78-.13,6.71.11c2.25-7.95.94-16,.63-24l0-1.65c.92-17.1.5-34.2.24-51.31l.5-.9c1.48-.1,2.47-.74,2.57-2.35l.06.21,62.83.15h.34a3.54,3.54,0,0,0,0,.92c3.84,2.41,8.14.4,12.14,1.25a41.7,41.7,0,0,1-12.89,1.93c-18.16,0-36.32.08-54.47-.18-4.26-.07-4.92,1.6-4.88,5.26.16,13.65-.05,27.32.14,41,.05,3.39-1.35,6.55-1,9.87.62,5.87,1.24,11.64.11,17.59s1.3,8.42,7.18,8.42c44.65,0,89.29-.07,133.94.1,4.65,0,5.85-1.31,5.81-5.87q-.33-35.48,0-71c0-4.09-1-5.42-5.27-5.38-18.32.19-36.65,0-55,0l.13-2.86c1.43-1.72,3.4-1,5.14-1,17.49,0,35,0,52.47,0,1.79,0,3.68.53,5.35-.64,2.2.6,3,2.31,3.47,4.31q0,15.88,0,31.78v3.15a173.57,173.57,0,0,0,.14,23.59c-.35,2.35,1.47,1.77,2.6,1.78,4,0,7.92,0,11.87-.09,5.3-.8,6,1.93,4.75,6.17-2.63,0-5.26,0-7.89,0-12,.26-12,.27-11.87,12.12,0,.82,0,1.64.08,2.47-.07,2.42-.13,4.85-.2,7.27q-35,.06-70,.1-41.49,0-83,0c-1.59,0-3.47-.64-4.68.93C191.55,108.53,193.56,118.09,196.21,120.28Z" transform="translate(-102.93 126.89)"/><path class="cls-6" d="M253.22-36.6a1.83,1.83,0,0,0,2-1.95c1.71,0,3-.82,4.52-1.64,13.33-7.31,31.38.72,35.71,15,2.88,9.52,0,16.67-4.89,23.93C287.84,2.87,285.4,7,284.72,12l-.75.86a5.16,5.16,0,0,0-.83.46l-5.21-.26c-.05-.8-.17-1.6-.15-2.4.12-6,2.78-11.52,3.28-17.45,2.76-.72,2.91-3.16,3.86-5.34-9.29.59-18.24.8-27.83-.5,5.76,8.15,7.36,16.79,8,25.71l-6,.13h-.34a8.55,8.55,0,0,0,.09-.87C256.59,6.06,253,.54,249.55-5.19c-4.88-8.2-4.4-17,0-25.39.7-1.31,1.7-2.4,1.69-4A1.9,1.9,0,0,0,253.22-36.6Z" transform="translate(-102.93 126.89)"/><path class="cls-4" d="M305.65-61.9c1.14-1.66-1.62-3.14.28-4.29,1.44-.88,2.93.06,4.25.63A17.59,17.59,0,0,1,320.45-54.7c1.8,5.45-1.6,10-7.24,9.34-6.3-.78-11.21-4-13.81-10-1.12-2.59-2.09-5.59.18-8C302.08-66,303.32-61.52,305.65-61.9Z" transform="translate(-102.93 126.89)"/><path class="cls-15" d="M351.64,75.41a173.57,173.57,0,0,1-.14-23.59c.6.64.19,1.88,1.65,2.07,12.66,1.59,17.54,9.84,12.65,21.27Z" transform="translate(-102.93 126.89)"/><path class="cls-6" d="M351,105.15c.07-2.42.13-4.85.2-7.28,4.26-.79,8.7.4,12.88-1.24,1.44,1.19,3.15.67,4.75.69,7.7.1,9.41,2.76,6.31,10l-23.78,0Z" transform="translate(-102.93 126.89)"/><path class="cls-15" d="M351.34,107.29l23.78,0c.49,0,1,.1,1.46.11,8.46.22,9.59,1.66,7.92,10.16l-33.31-.11Zm29.89,5c.57-.85.5-1.84-.56-1.82-8.86.16-17.76-1.14-26.57.68-.85.63-1,1.71.08,1.72C363.2,113,372.25,114.12,381.23,112.34Z" transform="translate(-102.93 126.89)"/><path class="cls-11" d="M364.06,96.63c-4.18,1.64-8.62.45-12.88,1.24,0-.82-.07-1.64-.08-2.46C351,83.56,351,83.55,363,83.29c2.63-.06,5.26,0,7.89,0-3.45,1.26-3.45,4.67-4.57,7.37C365.47,92.61,364.8,94.63,364.06,96.63Z" transform="translate(-102.93 126.89)"/><path class="cls-7" d="M327.85-5.85c1.65-3.66,5.21-3.6,8.26-3.69,3.33-.09,2.78,3,3.1,5.24.17,1.14.49,2.27.65,3.42,1,6.76,1,6.76-5.78,7.24-1.05-.25-2.32.11-3-1.12,2.05-1.11,3.57-2.44,3-5.17-.42-2.08-1.7-.67-2.59-.85-.22-1.14-.45-2.29-1.56-3l-.87-1Z" transform="translate(-102.93 126.89)"/><path class="cls-4" d="M338.55-24.41C334.75-22.93,336-20,335.06-19s-4,.47-5,2.82a5.47,5.47,0,0,0-5.5-1.83c.46-2.35-.71-3.93-2.47-5.23,1.84-1.38,1.79-3.36,1.73-5.35a5.62,5.62,0,0,0,5.33-2.57c1.26,1.95,3.32,1.5,5.07,2.06C335.23-28.8,334.13-24.93,338.55-24.41Zm-9.06-1.52c-1.24.11-2.23.61-2.35,2-.14,1.64.91,2.39,2.37,2.44a2,2,0,0,0,2.36-1.92C332-25,331-25.73,329.49-25.93Z" transform="translate(-102.93 126.89)"/><path class="cls-4" d="M327.85-5.85l1.22,1.1c-4.43-.22-7.08.21-6.63,6.34.3,4.1,3.2,3.83,4.69,5.7-9.62,2.44-10,2.2-11-6.42-1-9.19.05-10,9.28-7A12.14,12.14,0,0,0,327.85-5.85Z" transform="translate(-102.93 126.89)"/><path class="cls-4" d="M316-37l18.32-25.09c.8,2.49-.55,3.61-1.24,4.86-3.34,6-7.67,11.51-10.45,17.91C321.62-37,319.36-36.29,316-37Z" transform="translate(-102.93 126.89)"/><path class="cls-4" d="M309.28-10.67c.57.42,3.1-.1,3.22,3.64.14,4.09-2.53,5.34-5,5.37S303-4.51,303.08-7C303.2-9.19,304.56-11.74,309.28-10.67Z" transform="translate(-102.93 126.89)"/><path class="cls-11" d="M284,12.89l.75-.86q28.92.08,57.85.17c1.81,0,3.63.25,5.44.38-1.67,1.17-3.56.63-5.35.64-17.49,0-35,0-52.47,0-1.74,0-3.71-.69-5.14,1Z" transform="translate(-102.93 126.89)"/><path class="cls-10" d="M327.13,7.29c-1.49-1.87-4.39-1.6-4.69-5.7-.45-6.13,2.2-6.56,6.63-6.34l.87,1c-1.82.07-3.62.14-3.9,2.59s.31,4.17,3,4.61a1.79,1.79,0,0,0,2.05,1.78c.68,1.23,1.95.87,3,1.12C331.9,7.7,329.47,7.16,327.13,7.29Z" transform="translate(-102.93 126.89)"/><path class="cls-12" d="M286.07-40.85C285.65-47.13,290-51.08,291.7-56c.29-.79,1.46-.73,2.24-.43a1,1,0,0,1,.41,1.63C291.47-50.41,290.24-45,286.07-40.85Z" transform="translate(-102.93 126.89)"/><path class="cls-12" d="M316.5-16.94c-5.62,1.05-11.25,1.76-16.91-1.24h16.73Z" transform="translate(-102.93 126.89)"/><path class="cls-15" d="M351.5,48.67q0-15.89,0-31.78C352,27.49,352,38.08,351.5,48.67Z" transform="translate(-102.93 126.89)"/><path class="cls-10" d="M351.64,75.41l14.16-.25c.11.64.21,1.29.32,1.94-4,0-7.92.14-11.88.09C353.11,77.18,351.29,77.76,351.64,75.41Z" transform="translate(-102.93 126.89)"/><path class="cls-12" d="M311.15,4.2c-4.14,2.65-6.24-.86-9-1.28a1.17,1.17,0,0,1-.51-2c.9-.95,2.06-2,3.35-.57A16.67,16.67,0,0,0,311.15,4.2Z" transform="translate(-102.93 126.89)"/><path class="cls-12" d="M305.58-37.56c-1.1,4.43-4.81,4.38-7.24,6a1,1,0,0,1-1.62-.36c-.41-.74.2-1.34.7-1.63C299.88-34.95,302.11-36.89,305.58-37.56Z" transform="translate(-102.93 126.89)"/><path class="cls-15" d="M185.23,93l-5.78.13a.81.81,0,0,1,.05-.63c2.19-5.36-.74-10.64-.28-16,.17-1.88-.7-4.07,1.75-5.16,2.26,1.16,3,3,3.11,5.52C184.28,82.22,184.83,87.59,185.23,93Z" transform="translate(-102.93 126.89)"/><path class="cls-16" d="M179.5,92.46a.81.81,0,0,0-.05.63l-6.37-.19c-.65-4.57-2.87-8.76-3.16-13.44-.09-1.41-1.34-3.2.77-3.72,1.93-.47,2.81,1.28,3.31,3,1,3.46,2.16,6.9,3,10.41C177.38,90.7,178,91.87,179.5,92.46Z" transform="translate(-102.93 126.89)"/><path class="cls-13" d="M185.23,93c-.4-5.37-.95-10.74-1.15-16.12-.09-2.54-.85-4.36-3.11-5.52,1-1.28-2.31-2.47-.18-3.64,1.87-1,2.06.74,2.57,1.91.72,1.68,2.29,1.66,3.77,1.74,0,5.4-.07,10.8,0,16.2,0,1.56-.44,3.45,2,3.77.69,1.1,1.79.9,2.82.9a2.83,2.83,0,0,1,.05.87Z" transform="translate(-102.93 126.89)"/><path class="cls-11" d="M258.84,12.36a8.55,8.55,0,0,1-.09.87l-62.83-.15c.63-1.05,1.69-.89,2.65-.89Z" transform="translate(-102.93 126.89)"/><path class="cls-10" d="M192.79,16.12c.26,17.11.68,34.21-.24,51.31-.2-.7-.41-1.4-.62-2.1q0-19.57,0-39.14c0-1.29,0-2.58,0-3.87C192.47,20.29,191.43,18,192.79,16.12Z" transform="translate(-102.93 126.89)"/><path class="cls-12" d="M189.07,91.3c-2.43-.32-2-2.21-2-3.77,0-5.4,0-10.8,0-16.2h3.92c-.06.35-.12.71-.19,1.07-2.07,2.25-2.66,12-.8,14.1.08.1.59-.18.9-.29C191.78,88.44,189.16,89.4,189.07,91.3Z" transform="translate(-102.93 126.89)"/><path class="cls-16" d="M189.07,91.3c.09-1.9,2.71-2.86,1.89-5.1q0-6.9-.1-13.81c.07-.36.13-.72.19-1.07L190.9,70l-.15-3.16,1.18-1.46c.21.7.42,1.4.62,2.1,0,.55,0,1.1,0,1.65-1.3,7.67.11,15.43-.68,23.12C190.86,92.2,189.76,92.4,189.07,91.3Z" transform="translate(-102.93 126.89)"/><path class="cls-14" d="M171.11,93.3q0,17,0,34c0,.27,0,.54,0,.81-1.69-.83-.71-2.55-1.26-3.76l0-26.12C170.57,96.65,169,94.51,171.11,93.3Z" transform="translate(-102.93 126.89)"/><path class="cls-13" d="M169.88,98.21l0,26.12a7,7,0,0,1-4.86.84c1.11-1.81,5-1.33,4-4.9l-.06-8.13.05-2.8q0-4,.08-8c0-1,0-2,.07-3.06Z" transform="translate(-102.93 126.89)"/><path class="cls-12" d="M231.13,4.19C234,2.8,236.36,1.63,238.73.6c.74-.31,1.74-.31,2,.79.1.39-.16,1.24-.36,1.28C237.51,3.22,235.32,6.86,231.13,4.19Z" transform="translate(-102.93 126.89)"/><path class="cls-4" d="M190.75,66.79,190.9,70c-1.68-.23-4.62,1.63-4.46-1.82C186.57,65.42,189,66.39,190.75,66.79Z" transform="translate(-102.93 126.89)"/><path class="cls-11" d="M195.86,12.87c-.1,1.61-1.09,2.25-2.57,2.35A3,3,0,0,1,195.86,12.87Z" transform="translate(-102.93 126.89)"/><path class="cls-16" d="M192,22.32c0,1.29,0,2.58,0,3.87A2.48,2.48,0,0,1,192,22.32Z" transform="translate(-102.93 126.89)"/><path class="cls-7" d="M351.34,107.29l-.15,10.14a3.33,3.33,0,0,1-.08.84,14.66,14.66,0,0,1-8.56,2c-4.82-.17-9.65.06-14.47-.08-3.66-.1-5.4,1.22-4.49,5,.23.94.79,2.2-.5,2.49-1.49.34-1.7-1.08-2.06-2.22-.57-1.79,1.45-4.62-2-5.26v.17c-.66-1.28-1.86-1.19-3-1.19q-15.92,0-31.83,0c-1.16,0-2.36-.07-3,1.21a1.27,1.27,0,0,1-.23.82c-5.64-2.16-11.48-.56-17.22-1l-.31.11-.29-.15c-1.1-1.45-2.7-1-4.13-1q-29.07,0-58.14,0c-1.3,0-2.69-.28-3.72.89a1.89,1.89,0,0,1-.88.13c-2.65-2.19-4.66-11.75-2.85-14.07,1.21-1.57,3.09-.93,4.68-.93q41.49,0,83,0,35,0,70-.1Zm-79.3,9c2.59.09,4-1,4.11-3.74s-1-4.38-4-4.37c-2.56,0-4,1-4.11,3.77S269.07,116.39,272,116.32Z" transform="translate(-102.93 126.89)"/><path class="cls-9" d="M319,120.28c3.5.64,1.48,3.47,2,5.26.36,1.14.57,2.56,2.06,2.22,1.29-.29.73-1.55.5-2.49-.91-3.82.83-5.14,4.49-5,4.82.14,9.65-.09,14.47.08a14.66,14.66,0,0,0,8.56-2l.13.07c1.31,1.51,3.07.85,4.64.88,6.09.11,12.19.09,18.29.13-.05,3.26-.09,6.52-.14,9.78-16.93.05-33.86,0-50.79.21-3.09,0-4.22-1.32-4.28-4.09C318.92,123.6,319,121.94,319,120.28Z" transform="translate(-102.93 126.89)"/><path class="cls-14" d="M227,138.15c-1.17-1.38-2.83-.68-4.24-1,1.73-1.48,3.82-.82,5.74-.82,27.12-.05,54.23.08,81.34-.12A23.88,23.88,0,0,1,325,141.26l-2.16.18c-8.28-3.71-17.06-3.33-25.82-3.19-4.94.08-9.88,0-14.82,0Z" transform="translate(-102.93 126.89)"/><path class="cls-9" d="M263.68,120.34c5.74.39,11.58-1.21,17.22,1a15.44,15.44,0,0,0,4.19,7c-.95,1.32-2.36.94-3.63.94q-11.38,0-22.77-.06C261,126.6,263.38,124.05,263.68,120.34Z" transform="translate(-102.93 126.89)"/><path class="cls-7" d="M258.69,129.18q11.38,0,22.77.06c1.27,0,2.68.38,3.63-.94a7.29,7.29,0,0,0,4.29,1c1.48-.08,2.65.24,2.58,2.13s-1.51,1.88-2.83,1.88c-5.16,0-10.32,0-15.48,0-5.5,0-11,.08-16.48-.05-1.55,0-4.13,1.09-4.12-2s2.63-1.6,4.15-2A6.68,6.68,0,0,1,258.69,129.18Z" transform="translate(-102.93 126.89)"/><path class="cls-4" d="M197.09,120.15c1-1.17,2.42-.89,3.72-.89q29.07,0,58.14,0c1.43,0,3-.42,4.13,1Z" transform="translate(-102.93 126.89)"/><path class="cls-4" d="M281.13,120.47c.65-1.28,1.85-1.21,3-1.21q15.92,0,31.83,0c1.16,0,2.36-.09,3,1.19Z" transform="translate(-102.93 126.89)"/><path class="cls-11" d="M171.11,128.09c0-.27,0-.54,0-.81,6.4,0,12.8,0,19.2,0,1.58,0,3.31-.54,4.66.84A120.91,120.91,0,0,1,171.11,128.09Z" transform="translate(-102.93 126.89)"/><path class="cls-3" d="M222.7-3.66c-.38,2.2-1.3,3.84-3.75,4s-3.86-1-4-3.44c-.16-2.56,1.22-4.26,3.76-4.27C221-7.42,222.21-5.79,222.7-3.66Z" transform="translate(-102.93 126.89)"/><path class="cls-2" d="M207.61-16.85c-1.84-.34-3.17-1.33-3.05-3.28a2.81,2.81,0,0,1,2.92-2.81c1.92,0,3.31.88,3.32,2.87S209.46-17.16,207.61-16.85Z" transform="translate(-102.93 126.89)"/><path class="cls-13" d="M213-10.08c-1.09-1-3.16-.86-3.68-2.55-.29-.92,1.26-1.52,1.6-1,1.09,1.71,3.86-.9,4.2,1.75C215.23-10.76,214.15-10.27,213-10.08Z" transform="translate(-102.93 126.89)"/><path class="cls-7" d="M227,138.15l55.12.11c4.94,0,9.88.07,14.82,0,8.76-.14,17.54-.52,25.82,3.19-5.89,2.08-11.92,0-17.9.53-3.08.25-6.39-.33-9.52.12-2.29.33-4.2-.56-6.28-.87l-1-1.06-.52-.36.36.52,1.05,1c-2.81,2.24-6.21.84-9,.65-5.74-.38-11.37.58-17.06.43-5.9-.15-11.81-.87-17.75-.21-2.32.25-5.32,3.58-7.14-.89.94-.13,2-.13,2.25-1.34,0-.13-.37-.5-.59-.52-1.3-.09-1.58.81-1.68,1.84-2.32.16-4.64,2.27-7,0l.41-.42-.43.4-5,2c-2.32-2.33-5.4-.13-8.13-1.42A39.09,39.09,0,0,1,227,138.15Zm6.72,1.49c0,.1,0,.26.07.31a.92.92,0,0,0,.38.08l-.1-.54Z" transform="translate(-102.93 126.89)"/><path class="cls-2" d="M264.11-66.25c-.31,2-1.46,3.4-3.53,3.29a3.17,3.17,0,0,1-3.19-3.58,3.11,3.11,0,0,1,3.21-3.07C262.68-69.63,263.83-68.33,264.11-66.25Z" transform="translate(-102.93 126.89)"/><path class="cls-12" d="M168.92,112.14l.06,8.13c-5.45,1.59-10.86,3.09-15.49-2-2.6-2.85-3.53-9.74-1.57-12.86,3.26-5.2,8.47-7.34,13.45-5.51l3.68,1.4q0,4-.08,8c-4.34.53-7.78-.42-9.1-5.24-.23-.85-1.05-1.92-2.22-1.15-.82.54-.44,1.49-.06,2.24C160.87,111.81,158.74,112.57,168.92,112.14Z" transform="translate(-102.93 126.89)"/><path class="cls-11" d="M374.17,119.35c-6.1,0-12.2,0-18.29-.13-1.57,0-3.33.63-4.64-.88,9.91,0,19.82-.06,29.73-.06,1.43,0,3-.41,4.13,1Z" transform="translate(-102.93 126.89)"/><path class="cls-1" d="M234.21,192.15l1.25,1.57a3.37,3.37,0,0,1-1.28.35c-.33,0-.84-.49-.85-.77S233.79,192.67,234.21,192.15Z" transform="translate(-102.93 126.89)"/><path class="cls-11" d="M284.92,17.16c18.32,0,36.65.19,55,0,4.23,0,5.3,1.29,5.27,5.38q-.27,35.47,0,71c0,4.56-1.16,5.89-5.81,5.87-44.65-.17-89.29-.1-133.94-.1-5.88,0-8.31-2.46-7.18-8.42s.51-11.72-.11-17.59c-.36-3.32,1-6.48,1-9.87-.19-13.65,0-27.32-.14-41,0-3.66.62-5.33,4.88-5.26,18.15.26,36.31.15,54.46.18-1.21,1.59-1.44,3,.74,3.94v1.88l-1.24.33c-16.56-.06-33.11-.07-49.67-.19-2.91,0-4.4,1-4.15,4,.14,1.64.13,3.3.19,5-.06,18.46,0,36.93-.27,55.38C203.84,92.38,205.07,94,210,94c41.75-.18,83.51-.1,125.26-.12,1.61,0,3.36.49,4.76-.84l.55-.73c.8-19.66.29-39.33.26-59,.53-12.13.13-9.81-9.55-9.9-15.72-.16-31.45-.17-47.17-.24,0-.25,0-.5,0-.74,1.67-1.67,1-2.62-1-3.18l0-1.75Z" transform="translate(-102.93 126.89)"/><path class="cls-7" d="M284.92,17.16l-1.76.28-24.09,3.84c-2.18-1-1.95-2.35-.74-3.94a41.72,41.72,0,0,0,12.9-1.93l6.76-.2c1.94,0,4,.39,5.15-1.86a5.16,5.16,0,0,1,.83-.46l1.08,1.41C285,15.25,285,16.21,284.92,17.16Z" transform="translate(-102.93 126.89)"/><path class="cls-10" d="M283.14,13.35c-1.13,2.25-3.21,1.86-5.15,1.86-6.2-2.24-12.62-.34-18.9-1.05a3.54,3.54,0,0,1,0-.92l6-.13H276l1.91,0Z" transform="translate(-102.93 126.89)"/><path class="cls-10" d="M191.89,92.2c.79-7.69-.62-15.45.68-23.12.31,8,1.62,16-.63,24A2.83,2.83,0,0,0,191.89,92.2Z" transform="translate(-102.93 126.89)"/><path class="cls-11" d="M259.09,14.16c6.28.71,12.7-1.19,18.9,1.05l-6.76.2C267.23,14.56,262.93,16.57,259.09,14.16Z" transform="translate(-102.93 126.89)"/><path class="cls-12" d="M267.08,13.11h-2c-.63-8.92-2.23-17.56-8-25.71,9.59,1.3,18.54,1.09,27.83.5-.95,2.18-1.1,4.62-3.86,5.34l0,0c.13-2-.59-3.09-2.83-3.06-5.44.09-10.88,0-16.9,0A60.79,60.79,0,0,1,267.08,13.11Z" transform="translate(-102.93 126.89)"/><path class="cls-12" d="M277.93,13.09l-1.91,0c.15-6.15,1.64-12.07,3.09-18a2.1,2.1,0,0,1,2-1.85l0,0c-.5,5.93-3.16,11.45-3.28,17.45C277.76,11.49,277.88,12.29,277.93,13.09Z" transform="translate(-102.93 126.89)"/><path class="cls-13" d="M381.23,112.34c-9,1.78-18,.65-27.05.58-1.07,0-.93-1.09-.08-1.72,6.49,0,13-.08,19.47.1C376.13,111.37,378.92,110.28,381.23,112.34Z" transform="translate(-102.93 126.89)"/><path class="cls-12" d="M381.23,112.34c-2.31-2.06-5.1-1-7.66-1-6.48-.18-13-.09-19.47-.1,8.81-1.82,17.71-.52,26.57-.68C381.73,110.5,381.8,111.49,381.23,112.34Z" transform="translate(-102.93 126.89)"/><path class="cls-13" d="M329,3.46c-2.68-.44-3.26-2.22-3-4.61s2.08-2.52,3.9-2.59c1.11.67,1.34,1.82,1.56,3C331.54,1.13,330.27,2.29,329,3.46Z" transform="translate(-102.93 126.89)"/><path class="cls-4" d="M329,3.46c1.24-1.17,2.51-2.33,2.47-4.24.89.18,2.17-1.23,2.59.85.56,2.73-1,4.06-3,5.17A1.79,1.79,0,0,1,329,3.46Z" transform="translate(-102.93 126.89)"/><path class="cls-13" d="M329.49-25.93c1.47.2,2.46.92,2.38,2.5a2,2,0,0,1-2.36,1.92c-1.46,0-2.51-.8-2.37-2.44C327.26-25.32,328.25-25.82,329.49-25.93Z" transform="translate(-102.93 126.89)"/><path class="cls-6" d="M190.86,72.39q.06,6.9.1,13.81c-.31.11-.82.39-.9.29C188.2,84.39,188.79,74.64,190.86,72.39Z" transform="translate(-102.93 126.89)"/><path class="cls-6" d="M168.92,112.14c-10.18.43-8-.33-11.33-7-.38-.75-.76-1.7.06-2.24,1.17-.77,2,.3,2.22,1.15,1.32,4.82,4.76,5.77,9.1,5.24C169,110.28,168.94,111.21,168.92,112.14Z" transform="translate(-102.93 126.89)"/><path class="cls-11" d="M272,116.32c-3,.07-4.09-1.53-4-4.34s1.55-3.76,4.11-3.77c3,0,4.08,1.57,4,4.37S274.63,116.41,272,116.32Z" transform="translate(-102.93 126.89)"/><path class="cls-5" d="M238.06,141.24c.1-1,.38-1.93,1.68-1.84.22,0,.62.39.59.52-.26,1.21-1.31,1.21-2.25,1.34Z" transform="translate(-102.93 126.89)"/><path class="cls-5" d="M233.76,139.64l.35-.15.1.54a.92.92,0,0,1-.38-.08C233.77,139.9,233.78,139.74,233.76,139.64Z" transform="translate(-102.93 126.89)"/><path class="cls-5" d="M289,141.28l-1.05-1,.16-.16,1,1.06Z" transform="translate(-102.93 126.89)"/><path class="cls-5" d="M231.06,141.24l.43-.4-.41.42Z" transform="translate(-102.93 126.89)"/><path class="cls-5" d="M288,140.32l-.36-.52.52.36Z" transform="translate(-102.93 126.89)"/><path class="cls-16" d="M340.83,33.26c0,19.67.54,39.34-.26,59A.73.73,0,0,0,340,93c-1.4,1.33-3.15.84-4.76.84-41.75,0-83.51-.06-125.26.12-4.93,0-6.16-1.57-6.08-6.29.3-18.45.21-36.92.27-55.38l55.05-.17c.11,2.66.88,4,4.2,7.11H217.71v2h48.41a18.4,18.4,0,0,0,10.75-.12h50.83c-1.76-2.54-3.75-1.76-5.42-1.77-12.28-.07-24.57,0-36.86-.07-1.89,0-4,.72-5.58-1.17l.34-1.65c2.06-.12,2-1.72,2.23-3.14l1.6-1.07,51.09,0C337.07,32.25,339.11,31.9,340.83,33.26ZM246.06,59.13c0,.29-.12.68,0,.84a1.23,1.23,0,0,0,.86.29l52.14.06v1.9H246.23v1H300l-.94,2H246.24v1H300l0,2.07H246.25v1.12h52.83c-.3,3,1.69,3,3.75,2.85.06,4,.31,8,.12,11.93-.16,3.35,1.18,4.33,4.36,4.22,5.3-.2,10.62-.19,15.92,0,3.13.11,4-1.19,3.94-4.11q-.17-16.67,0-33.34c0-2.79-1-3.82-3.77-3.77-6.8.14-13.6.06-20.4.08l-3-1H245.31c.93,2.32,2.07,2,3,2,11.58,0,23.15-.07,34.73.12,2,0,4.05-2.21,6.07-.08,0,.33,0,.65,0,1-13.07,0-26.13,0-39.19.07-1.73,0-4.21-1.11-4.82,2v6Zm-4,8.63c0-5.66-.07-11.31,0-17,0-2.45-.7-3.69-3.39-3.64-6.15.11-12.3.08-18.45,0-2.36,0-3.22,1-3.21,3.3q.08,17,0,33.91c0,2.7,1.13,4,3.87,4,5.65,0,11.31-.1,17,0,3.37.08,4.28-1.61,4.22-4.63C242,78.4,242.08,73.08,242.08,67.76Zm31.3,5v-1H245.75l0,1Z" transform="translate(-102.93 126.89)"/><path class="cls-8" d="M340.83,33.26c-1.72-1.36-3.76-1-5.72-1l-51.09,0c-2.57-2.38,2-5.7-1.07-8a3.62,3.62,0,0,0,.21-.92l-.09.06,1-.22c15.72.07,31.45.08,47.17.24C341,23.45,341.36,21.13,340.83,33.26Z" transform="translate(-102.93 126.89)"/><path class="cls-8" d="M259.24,32.11l-55.05.17c-.06-1.65-.05-3.31-.19-5-.25-3.07,1.24-4,4.15-4,16.56.12,33.11.13,49.67.19-.35,1.87.68,3,2.13,3.88,0,.29,0,.58,0,.87C257.89,29.18,257.58,30.46,259.24,32.11Z" transform="translate(-102.93 126.89)"/><path class="cls-7" d="M260,27.37c-1.45-.89-2.48-2-2.13-3.88l1.24-.33,24.06-4c2,.56,2.63,1.51,1,3.18l-1,1,.09-.06C275.27,23.73,267.42,24.49,260,27.37Z" transform="translate(-102.93 126.89)"/><path class="cls-9" d="M283.12,19.2l-24.06,4c0-.63,0-1.25,0-1.88l24.09-3.84C283.14,18,283.13,18.61,283.12,19.2Z" transform="translate(-102.93 126.89)"/><path class="cls-8" d="M340,93a.73.73,0,0,1,.55-.73Z" transform="translate(-102.93 126.89)"/><path class="cls-9" d="M283.07,23.34l1-1c0,.24,0,.49,0,.74Z" transform="translate(-102.93 126.89)"/><path class="cls-6" d="M281.09-6.73a2.1,2.1,0,0,0-2,1.85c-1.45,5.93-2.94,11.85-3.09,18h-8.94a60.79,60.79,0,0,0-5.72-22.87c6,0,11.46.06,16.9,0C280.5-9.82,281.22-8.74,281.09-6.73Z" transform="translate(-102.93 126.89)"/><path class="cls-8" d="M242.08,67.76c0,5.32-.09,10.64,0,16,.06,3-.85,4.71-4.22,4.63-5.65-.12-11.31-.07-17,0-2.74,0-3.88-1.25-3.87-4q.08-16.95,0-33.91c0-2.3.85-3.33,3.21-3.3,6.15.07,12.3.1,18.45,0,2.69,0,3.43,1.19,3.39,3.64C242,56.45,242.08,62.1,242.08,67.76Z" transform="translate(-102.93 126.89)"/><path class="cls-8" d="M303,47.23c6.8,0,13.6.06,20.4-.08,2.79,0,3.79,1,3.77,3.77q-.15,16.67,0,33.34c0,2.92-.81,4.22-3.94,4.11-5.3-.18-10.62-.19-15.92,0-3.18.11-4.52-.87-4.36-4.22.19-4-.06-8-.11-11.93Q302.92,59.74,303,47.23Z" transform="translate(-102.93 126.89)"/><path class="cls-1" d="M303,47.23q-.08,12.5-.16,25c-2.07.12-4.06.14-3.76-2.86l1-1.11,0-2.07-1-1,.94-2-.94-1c0-.63,0-1.27,0-1.9,1.35-2.52,2.49-4.3-2.26-4.23-17.25.27-34.51.09-51.76.07V54.28H299.4v-2H245.07v-1h54.35l0-2H289.08c0-.33,0-.65,0-1,2.1,0,4.22.13,6.3,0,1.71-.14,4.12,1.1,4.67-1.94Z" transform="translate(-102.93 126.89)"/><path class="cls-7" d="M259.24,32.11c-1.66-1.65-1.35-2.93.73-3.87,7.75-.82,15.49-1.75,23-4,3,2.32-1.5,5.64,1.07,8l-1.6,1.07-13.36,2.38,0,.76h11.11c-.11.55-.23,1.1-.34,1.65l-3,3a18.4,18.4,0,0,1-10.75.12l-2.69-2C260.12,36.06,259.35,34.77,259.24,32.11Zm2.31-.44.18,1.74c6.63-1.41,13.54-1.22,20-3.67l-.23-1.34Z" transform="translate(-102.93 126.89)"/><path class="cls-13" d="M245.07,56.16c17.25,0,34.51.2,51.76-.07,4.75-.07,3.61,1.71,2.26,4.23L247,60.26a1.23,1.23,0,0,1-.86-.29c-.15-.16,0-.55,0-.84h51.33V57.29H245.07Z" transform="translate(-102.93 126.89)"/><path class="cls-13" d="M289.08,49.23h10.31l0,2H245.07c.61-3.06,3.09-1.93,4.82-2C263,49.21,276,49.24,289.08,49.23Z" transform="translate(-102.93 126.89)"/><path class="cls-13" d="M245.07,52.26H299.4v2H245.07Z" transform="translate(-102.93 126.89)"/><path class="cls-1" d="M245.07,57.29h52.32v1.85H246.06Z" transform="translate(-102.93 126.89)"/><path class="cls-13" d="M300,46.26c-.55,3-3,1.8-4.67,1.94-2.08.18-4.2,0-6.3,0-2-2.13-4,.11-6.07.08-11.58-.19-23.15-.08-34.73-.12-.89,0-2,.37-3-2Z" transform="translate(-102.93 126.89)"/><path class="cls-8" d="M276.88,41.09l3-3c1.54,1.89,3.69,1.16,5.58,1.17,12.29.06,24.58,0,36.86.07,1.67,0,3.66-.77,5.42,1.77Z" transform="translate(-102.93 126.89)"/><path class="cls-8" d="M263.44,39.22l2.69,2H217.72v-2Z" transform="translate(-102.93 126.89)"/><path class="cls-13" d="M273.38,72.79H245.77l0-1h27.62Z" transform="translate(-102.93 126.89)"/><path class="cls-8" d="M299.08,62.22l.94,1H246.24v-1Z" transform="translate(-102.93 126.89)"/><path class="cls-8" d="M299.08,65.21l1,1h-53.8v-1Z" transform="translate(-102.93 126.89)"/><path class="cls-13" d="M300.07,68.26l-1,1.11H246.26V68.26Z" transform="translate(-102.93 126.89)"/><path class="cls-9" d="M280.19,36.43H269.08l0-.76,13.36-2.38C282.21,34.71,282.25,36.31,280.19,36.43Z" transform="translate(-102.93 126.89)"/><path class="cls-9" d="M283,24.2c-7.49,2.29-15.23,3.22-23,4,0-.29,0-.58,0-.87,7.47-2.88,15.32-3.64,23.21-4.09A3.62,3.62,0,0,1,283,24.2Z" transform="translate(-102.93 126.89)"/><path class="cls-9" d="M261.55,31.67l19.94-3.27.23,1.34c-6.45,2.45-13.36,2.26-20,3.67Z" transform="translate(-102.93 126.89)"/></svg>