<?xml version="1.0" encoding="utf-8"?>
<!-- Generator: Adobe Illustrator 23.0.5, SVG Export Plug-In . SVG Version: 6.00 Build 0)  -->
<svg version="1.1" id="Слой_1" xmlns="http://www.w3.org/2000/svg" xmlns:xlink="http://www.w3.org/1999/xlink" x="0px" y="0px"
	 viewBox="0 0 595.28 170.08" style="enable-background:new 0 0 595.28 170.08;" xml:space="preserve">
<style type="text/css">
	.st0{fill:#E9F3FC;}
	.st1{fill:#E9F2FB;}
	.st2{fill:#EAF2F7;}
	.st3{fill:#5888C6;}
	.st4{fill:#FCD377;}
	.st5{fill:#5783C2;}
	.st6{fill:#2E4D94;}
	.st7{fill:#FDEBB1;}
	.st8{fill:#C4D6EC;}
	.st9{fill:#4B76B8;}
	.st10{fill:#EC887B;}
	.st11{fill:#333D77;}
	.st12{fill:#2B4E98;}
</style>
<g>
	<g>
		<path class="st0" d="M434.78-168.83c11.59,13.88,16.24,30.54,18.96,47.89c3.07,19.6,11.09,35.37,31.27,42.21
			c5.96,2.02,12.07,3.65,17.88,6.02c19.84,8.1,27.68,27.08,22.36,47.98c-2.41,9.47-7.39,17.62-12.38,25.87
			c-6.79,11.22-5.2,22.65,1,33.5c4.19,7.33,9.47,14.04,13.75,21.33c11.87,20.23,13.11,41.18,4.34,63.04
			c-6.46,16.09-14.85,30.97-24.99,44.97c-1.9,2.62-4.62,4.26-6.48,6.8c-3.93-1.29-8.01-0.14-11.99-0.73
			c1.87-4.81,1.51-9.81,1.09-14.78c-0.29-3.41-1.97-5.41-5.86-5.19c-4.31,0.24-8.64,0.03-12.97,0.02c-0.45-3.02,0.45-5.92,0.73-8.87
			c0.89-9.27-0.8-10.89-9.92-11.17c-4.51-0.14-9.25,1.43-13.55-1.23c2.62-8.23,5.24-16.45,7.86-24.68c6.12-0.84,7.35-4.8,6.52-10.13
			c-0.13-0.81-0.06-1.65-0.04-2.47c0.09-3.17-1.01-4.93-4.62-4.6c-2.61,0.23-5.26-0.09-7.9-0.17c6.37-10.7,6.89-21.72,0.29-32.26
			c-6.23-9.96-15.74-13.64-27.39-11.37c-0.04-1.49-0.12-2.98-0.12-4.47c0-22.24,0.01-44.47,0-66.71c0-9.28-3.58-12.87-12.94-13.1
			c-1.65-0.04-3.29-0.2-4.94-0.31c0.28-2.67-1.08-3.69-3.56-3.34c-3.62,0.51-7.26-0.19-10.8-0.41c-3.61-0.23-8.11-0.85-9.65-5.56
			c0.31-0.22,0.61-0.45,0.92-0.67c3.3-1,6.69-0.05,10.02-0.53c1.54,1.69,1.84,0.49,2.07-0.88c0.61-0.11,1.22-0.22,1.84-0.33
			c1.44,1.89,2.51,1.83,3.16-0.58c1.83-0.54,2.07-1.9,1.84-3.52c-1.06-7.68-2.08-15.36-3.2-23.03c-0.23-1.61-0.85-2.34-2.92-3.01
			c-7.16-2.32-12.65,2.54-18.97,3.49c-0.6,0.01-1.2,0.02-1.8,0.02c-3.65,0.05-7.31,0.11-10.96,0.16c0.15-2.73-0.09-5.68-3.4-5.92
			c-2.67-0.19-3.67,2.16-3.6,4.73c-0.99,0.38-1.97,0.76-2.96,1.14c-2.49-1.58-5.37-1.7-8.16-2.16c0.15-1.5,0.92-3.31-1.72-3.38
			c-0.03-0.84-0.01-2.17,0.75-2.15c4.8,0.12,7.4-4.28,11.53-5.41c2.32-0.64,3.25-2.47,3.35-4.45c0.1-2.08-1.59-3.15-3.51-3.62
			c-1.44-0.35-2.89-0.62-4.34-0.92c-0.31,0.01-0.62-0.01-0.93-0.05c0.44-6.61-0.74-8.56-4.63-6.67c-5.83,2.83-11.4,0.42-17.03,0.5
			c-5.76,0.09-8.57-6.59-5.6-11.41c4.39-7.13,12.08-9.61,18.72-13.43c3.98-2.29,7.06-4.22,4.35-10.42c2.53,1.65,3.35,3.71,5.41,3.53
			c-0.36,2.5,1.64,1.59,2.78,1.93c0.22,2.14,1.77,2.09,3.29,1.91c1.86-0.22,1.64-1.73,1.71-3.03c2.27-1.33,5.43-2.14,6.02-4.89
			c1.42-6.53,6.4-11.08,8.79-17.01c4.77-7.68,9.57-15.35,14.28-23.07c0.8-1.3,2.85-3.09,1.24-4.26c-1.82-1.32-2.59,1.37-3.46,2.53
			c-4.59,6.1-9.04,12.3-13.54,18.47c-0.9-1.76-2.33-2.07-3.6-0.72c-2.13,2.27-4.66,2.24-7.36,1.89
			c2.41-14.99-14.84-30.39-26.79-31.81c-1.62-0.19-3.35-0.47-4.66,0.99c-2.81,0.54-7.55-4.08-7.93,2.97
			c-1.03,0.34-2.06,0.69-3.09,1.03c-4.81,0.58-12.95,10-13.88,16.08c-0.64,0.65-1.28,1.31-1.92,1.96c-2.52-0.32-4.16,0.93-5.14,3.09
			c-2.22,4.91-5.95,9-7.36,14.37c-0.59,2.28-2.07,3.69-4.04,0.77c-1.11-1.65-2.61-2.4-4.67-2.26c-7.21,0.48-8.24-0.29-9.96-7.47
			c-2.25-9.39,2.21-18.3,2.05-27.55c8.14-6.8,17.65-10.88,27.67-13.94c1.42-0.43,2.89-0.7,4.33-1.05c1.65,1.63,2.59,1.13,3-0.99
			c1.67-0.01,3.33-0.01,5-0.02c3.21,2.69,15.6,0.98,17.93-2.48c0.08-0.12,0.05-0.32,0.07-0.49c3.67-0.01,7.34-0.01,11-0.02
			c2.56,1.28,5.1,2.39,7-0.99c13.79,0.38,27.13,3.05,40,8c0,1.25,0.57,2.25,1.53,2.95c5.28,3.85,10.99,6.79,17.47,8.04
			c1.98,0.95,4.01,1.82,5,4c0.29,2.38,1.62,3.72,4.01,4c0,0,0,0,0,0c1.44,3.74,3.68,6.55,7.99,7.01c0.33,0.33,0.67,0.67,1,1
			C427.86-174.23,430.47-170.85,434.78-168.83z M363.75-113.85c0.03,1.33,0.05,2.67,0.08,4c-1.37,0.13-2.61,1.11-1.72,2.18
			c1.73,2.08,1.59,6.17,5.76,5.81c1.16,0.9,2.4,1.48,3.92,1.05c1.09,2.47,2.14,5.02,5.57,2.74c2.2,0.48,4.23,1.06,4.58-2.43
			c0.29-2.89,1.87-4.32,4.71-2.1c1.25,0.98,2.37,1.08,3.47-0.16c1.17-1.32,0.47-2.35-0.42-3.49c-1.87-2.39-1.85-4.27,1.65-4.89
			c1.47-0.26,2.48-0.85,2.43-2.54c-0.05-1.78-1.15-2.1-2.65-2.19c-3.73-0.22-4.27-2.02-2.19-4.85c0.97-1.32,0.94-2.42-0.28-3.45
			c-1.26-1.07-2.31-0.65-3.48,0.36c-2.35,2.01-4.21,1.91-4.83-1.57c-0.26-1.46-0.84-2.51-2.53-2.45c-1.74,0.07-2.06,1.21-2.24,2.68
			c-0.36,2.88-1.65,4.55-4.56,2.41c-2.84-2.1-3.76-0.21-4.71,1.92C361.01-118.54,360.66-117.6,363.75-113.85z M295.93-176.29
			c-0.95-0.08-0.98,0.66-1.06,1.27c-0.08,0.65,0.01,1.4,0.74,1.57c0.93,0.22,0.99-0.62,1.07-1.24
			C296.76-175.33,296.63-175.95,295.93-176.29z"/>
		<path class="st1" d="M15.78,177.16c-8.33-4.82-13.83-12.2-17.97-20.59c-9.31-18.86-11-39.12-9.9-59.68
			c0.53-10.04,4.84-18.71,11.77-26.23C9.66,59.8,21.85,52.43,35,46.13c9.47-4.53,17.67-10.79,23.83-19.73
			c6.54-9.48,5.28-19.07,2.04-28.93c-2.75-8.35-5.37-16.56-5.25-25.62c0.13-9.96,3.84-18.1,10.24-25.19
			c11.82-13.09,27.16-20.54,43.41-26.39c7.25-2.61,14.63-4.85,21.95-7.26c1.18,0.2,2.37,0.39,3.55,0.59
			c0.1,0.85,0.54,1.44,1.36,1.72c-0.13,1.52,0.71,2.5,1.88,3.26c1.85,1.21,3.66,2.35,3.02,5.09c-0.67,2.84-2.68,3.44-5.21,3.58
			c-2.92,0.16-2.77,2.1-2.37,4.3c0.41,2.29,1.17,3.87,3.87,3.1c2.2-0.62,4.19-0.84,5.73,1.43c1.59,2.34,0.41,4.07-1.02,5.78
			c-1.57,1.88-1.69,3.34,0.68,4.82c1.96,1.22,3.56,2.66,5.32-0.18c1.15-1.85,2.41-3.64,5.12-3.06c2.99,0.64,3.22,3.08,3.45,5.36
			c0.23,2.23,1.34,2.56,3.33,2.54c3.76-0.04,4.5-1.96,3.82-5.15c-0.42-1.95-0.03-3.66,1.92-4.64c1.81-0.91,3.49-0.73,5.05,0.67
			c1.1,0.99,2.21,2.07,3.93,1.69c3.98,3.9,15.75,5.98,20.27,3.09c5.4-3.44,11.4-5.98,16.12-10.49c0.66-0.63,1.95-1.44,2.54-1.2
			c4.12,1.72,8.12-0.36,12.16-0.14c2.8,3.83,5.56,7.69,6.2,12.58c-0.19,1.28,0.13,2.22,1.59,2.41c0.15,0.63,0.31,1.26,0.46,1.9
			c-3,1.82-8.76,0.12-8.22,6.45c-1.34,0.45-2.68,0.5-4.02-0.02c-1.98-2.05-3.95-2.08-5.91,0.02c-1.03,0.45-2.06,0.45-3.09-0.01
			c-1.29-1.93-2.6-1.92-3.91-0.02c-5.03,0.6-10.06,0.61-15.09,0.02c-0.97-1.91-1.94-1.91-2.92,0c-5.03,0.59-10.06,0.64-15.09-0.05
			c-1.97-1.99-3.94-2.01-5.91,0.01c-6.03,0.67-12.06,0.59-18.09-0.02c-0.98-1.84-1.95-1.83-2.92,0.01
			c-5.03,0.67-10.06,0.62-15.09,0.03c-2.64-2.13-5.28-2.15-7.91,0.01c-3.12,0.13-6.26,0.07-9.36,0.43c-3.87,0.45-7.9,0.83-9.88,5.07
			c-2.33,2.47-1.77,5.57-1.77,8.5c-0.08,33.88-0.12,67.76-0.18,101.65c-1.92-2.43-0.01-5.47-1.41-8.38c-0.71,1.15-1.31,2.1-1.9,3.05
			c-3.37-1.81-6.64-2.94-9,1.46c-2.26-0.01-4.52-0.01-6.78-0.02c-8.01-0.26-9.15,0.96-6.79,7.29c0.05,1.01,0.11,2.02,0.16,3.03
			c-1.11,1.69-0.65,3.48-0.51,5.32c0.82,10.76,1.56,21.53,2.33,32.3c-1.74-0.15-3.09,0.18-2.94,2.37c-1,0.46-2,0.43-3.02,0.09
			c-0.13-10.93-6.06-20.45-7.62-31.09c-0.39-2.65-3.37-4.44-7.03-2.77c-3.24,1.48-1.99,3.44-1.42,5.6
			c1.4,5.25,2.74,10.51,4.07,15.77c1.04,4.1,2.71,8.16,1.02,12.48c-0.69-0.07-1.38-0.13-2.06-0.2c-0.12-0.24-0.25-0.48-0.37-0.72
			c-0.18,0.32-0.36,0.64-0.54,0.96c-1.95,3.33-0.26,7.03-1.08,10.48c-0.66,0.02-1.32,0.04-1.98,0.06
			c-13.07-8.53-32.45-3.43-39.53,10.16c-5.16,9.89-4.77,19.66-0.35,29.56C17.18,173.01,16.48,175.09,15.78,177.16z M59.47,82.7
			c1.54-0.12,2.77-0.73,2.79-2.3c0.02-1.63-0.91-2.89-2.69-2.91c-1.47-0.02-1.83,1.17-1.86,2.41C57.67,81.24,57.61,82.64,59.47,82.7
			z"/>
		<path class="st2" d="M361.16-166.01c2.7,0.36,5.23,0.38,7.36-1.89c1.27-1.35,2.7-1.04,3.6,0.72c-0.5,1.02-1,2.04-1.5,3.07
			c-0.66,0.46-1.59,0.77-1.93,1.41c-4.64,8.63-12.86,14.48-17.68,22.95c-2.06,0.18-2.88-1.88-5.41-3.53
			c2.71,6.2-0.37,8.13-4.35,10.42c-6.64,3.83-14.34,6.3-18.72,13.43c-2.96,4.82-0.16,11.5,5.6,11.41c5.63-0.09,11.19,2.32,17.03-0.5
			c3.89-1.89,5.06,0.06,4.63,6.67c-8.78,0.02-17.56,0.03-26.34,0.08c-1.48,0.01-3.33,0.03-3.23,2.11c0.08,1.66,1.74,1.78,3.08,1.78
			c8.45,0.02,16.9,0.06,25.35-0.03c2.71-0.03,3.59-1.42,2.08-3.89c1.45,0.3,2.91,0.57,4.34,0.92c1.92,0.47,3.62,1.54,3.51,3.62
			c-0.1,1.98-1.03,3.82-3.35,4.45c-4.13,1.13-6.73,5.53-11.53,5.41c-0.76-0.02-0.78,1.31-0.75,2.15c-1.68,0.75-3.15,1.34-3.52-1.45
			c-0.47-3.61-1.9-3.55-3.65-0.68c-1.05,1.72-1.83,1.35-3.54,0.49c-5.32-2.68-1.37,7.29-6.8,5.32c-0.47-0.17-0.68,1.63,0.25,2.39
			c0.25,0.21,0.58,0.33,0.87,0.49c1.81,1.02,1.2,2.01,0.46,3.63c-2.53,5.48,7.45,1.29,5.59,6.86c-0.14,0.41,2.04,0.29,2.59-0.95
			c2.03-4.6,3.94,0.95,5.91,0.04c2.45-1.13-1.73-5.97,3.2-5.75c0.84,0.04,1.75-0.06,2.04-1.03c0.37-1.23-0.47-1.79-1.43-2.23
			c-2.44-1.1-2.7-2.34-0.23-3.74c2.79,0.47,5.67,0.58,8.16,2.16c-2.31,2.42-2.32,5.33-1.84,8.38c0.67,4.26,1.41,8.51,1.86,12.8
			c1.08,10.18,1.02,10.19,10.93,9.73c0.48,2.81,0.09,6,4.62,6.03c6.42,0.04,6.42,0.24,6.35-7.47l0.31-0.05c0,0,0.14,0.28,0.14,0.28
			c0.53,0.06,1.05,0.11,1.58,0.17c1.65,1.49,1.82,0.24,1.97-1.06l-0.02,0.02c0.68,0.03,1.36,0.06,2.04,0.09
			c1.54,4.7,6.04,5.33,9.65,5.56c3.54,0.22,7.18,0.92,10.8,0.41c2.47-0.35,3.84,0.67,3.56,3.34c-2.15,0.11-4.3,0.31-6.45,0.32
			c-27.06,0.02-54.11,0.03-81.17,0c-1.81,0-3.62-0.24-5.43-0.37c-3.31-2.14-6.61-2.17-9.91,0.01c-2.03,0.56-4.06,0.56-6.09-0.01
			c-1.7-2.03-3.34-2.13-4.92,0.13c-0.68,0.05-1.37,0.1-2.05,0.15c-0.05-0.9-0.1-1.8-0.15-2.7c0.19-1.14,0.13-2.4,0.61-3.42
			c3.86-8.29,8.14-16.31,13.4-23.86c8.15-11.7,11.36-24.79,8.68-38.88c-5.07-26.61-30.65-45.2-58.15-39.77
			c-15.04,2.97-26.83,11.23-34.48,24.82c-6.99,12.42-7.4,25.6-4.46,39.16c-3.14-0.42-2.1-5.67-5.24-5.22
			c-5.23,0.75-9.38-2.64-14.33-2.81c-7.46-0.26-14.52,0.98-21.23,4.24c-1.7-2.12-3.7-3.65-6.63-3.25c1.39-2.57,3.37-4.41,6.3-5.08
			c8.8-0.03,17.61-0.01,26.41-0.12c1.68-0.02,4.57,0.77,4.57-1.5c0-2.41-2.94-1.97-4.82-2.02c-5.15-0.12-10.3-0.13-15.44-0.18
			c1.43-2.93,4.09-4.58,6.61-6.38c6.35-4.53,12.65-9.11,18.06-14.79c1.29-1.35,2.63-2.59,2.33-4.7c1.18-0.22,1.98-0.78,1.9-2.13
			c8.25-2.8,11.49-10.7,16.65-16.61c0.9-1.04,0.51-3.2,0.71-4.84c1.02,0.35,2.14,1.85,2.98,1c1.34-1.36-0.69-2.92-0.45-4.5
			c4.87-0.46,6.38-4.89,9.04-7.86c6.32-7.08,10.75-15.83,18.93-21.27c0.07,7.43,0.11,14.87,0.24,22.3c0.02,1.34-0.59,3.46,1.61,3.47
			c1.8,0.01,1.45-1.9,1.45-3.14c0.04-7.6,0.07-15.21-0.01-22.81c-0.02-2.17-0.28-4.41-3.17-4.79c-0.73-0.47-0.9-1.18-0.88-1.98
			c0.32-0.36,0.65-0.72,0.97-1.08c2.15,3.23,4.94,2.62,7.54,0.91c1.76-1.16,3.28-2.62,5.49-2.85c0.16,9.25-4.3,18.16-2.05,27.55
			c1.72,7.18,2.76,7.95,9.96,7.47c2.05-0.14,3.56,0.61,4.67,2.26c1.96,2.93,3.44,1.51,4.04-0.77c1.4-5.37,5.14-9.47,7.36-14.37
			c0.98-2.16,2.61-3.41,5.13-3.09c-0.24,1.69-1.22,3.03-2.05,4.46c-3.47,6-6.89,12.03-10.29,18.07c-0.56,1-1.2,2.24,0.08,3.08
			c0.95,0.62,1.98,0.05,2.56-0.83c5.08-7.72,9.89-15.59,13.76-24c1.1-2.38,0.05-2.99-2.15-2.75c0.93-6.08,9.07-15.5,13.88-16.08
			c-2.44,3.94-4.46,8.08-2.06,12.64c1.07,2.04,1.77,4.14,2.58,6.24c-5.82,1.07-7.5,5.86-9.41,10.46c-0.8,1.93-0.76,4.23-2.84,5.59
			c-3.36,2.2-4.11,5.47-4.32,9.38c-0.25,4.63,1.32,7.13,5.79,8.21c1.13,0.27,2.03,1.64,2.94,2.59c2.05,2.17,3.82,2.16,6.48,0.49
			c4.24-2.67,8.8-5.01,13.97-5.55c-0.59,1.33-1.91,1.74-3.01,2.46c-4.98,3.24-10.69,5.31-15.13,9.42c-0.71,0.66-1.96,1.13-1.45,2.27
			c0.63,1.4,2.09,0.99,3.02,0.46c7.75-4.45,15.47-8.93,23.12-13.54c2.13-1.28,1.81-2.6-0.61-3.29c1.01-5.09,1.51-10.07-2.99-13.98
			c3.18,0.87,6.32,1.94,9.55,2.57C352.51-154.81,358.57-158.35,361.16-166.01z M339.66-55.33c-0.12-1.58-1.16-2.55-2.23-3.23
			c-3.22-2.03-6.52-3.92-9.85-5.77c-4.34-2.42-8.72-4.78-13.13-7.07c-1-0.52-2.38-0.9-3.08,0.38c-0.58,1.06,0.48,1.89,1.23,2.44
			c1.73,1.26,3.55,2.42,5.41,3.5c6.02,3.49,12.05,6.95,18.12,10.34C337.36-54.06,338.89-53.07,339.66-55.33z"/>
		<path class="st0" d="M132.8,223.22c-0.9-3.65-4.33-3.26-6.82-3.96c-18.78-5.27-37.39-11.03-55.2-19.1
			c-0.22-4.7,2.71-5.96,6.65-5.98c8.46-0.04,16.93,0,25.39-0.02c2.13,0,4.41,0.37,5.81-1.89c2.52-1,3.29-2.94,3.23-5.53
			c-0.08-3.8,0.06-7.61,0.1-11.42c1.16-0.02,2.33-0.06,3.49-0.06c43.79-0.03,87.58-0.06,131.37-0.09c-0.43,7.78-5,13.11-10.52,17.9
			c-1.33,0.04-2.65,0.09-3.98,0.12c-7.66,0.15-7.66,0.15-7.07,7.75c-1.69,0.35-2.79,1.01-2.01,3.06c0.84,2.21,2.6,2.2,4.49,2.19
			c16.29-0.02,32.58-0.03,48.86,0.02c1.75,0.01,3.7-0.66,5.19,0.94c-1.99,0.08-3.98,0.23-5.97,0.23
			c-33.97,0.03-67.95,0.06-101.92,0.03c-4.93,0-9.59,0.71-13.71,3.62l-0.37,0.08c-0.56,0.3-1.13,0.61-1.69,0.91l-0.3-0.04
			c-0.33,0.11-0.67,0.23-1,0.34c-6.78,2.81-13.85,4.98-20.19,8.8C134.75,220.73,134.07,222.5,132.8,223.22z"/>
		<path class="st0" d="M469.78,198.16c-5.9,6.12-13.6,9.05-21.3,11.88c-14,5.14-28.52,6.64-43.39,6.27
			c-6.4-0.16-12.83,1.23-19.3,0.86c-3.49-0.05-6.89,0.39-10.02,2.08c-0.62-0.04-1.24-0.08-1.86-0.12c-0.08-0.29-0.13-0.59-0.14-0.89
			c-0.43-0.32-0.86-0.65-1.29-0.97c-0.29,0.08-0.53,0-0.72-0.24c-0.47-0.24-0.95-0.48-1.42-0.72c-0.25,0.09-0.44,0.02-0.57-0.22
			c-0.5-0.26-1.01-0.52-1.51-0.78c-9.96-4.77-19.89-9.64-31.47-8.12c-0.07-1.29,0.11-2.77-1.77-2.91c-2.17-0.16-2.22,1.39-2.23,2.92
			c-7-0.01-14-0.02-21-0.03c-0.16-1.65-0.8-3.01-2.7-2.77c-1.59,0.2-1.19,1.7-1.3,2.79c-1.67-0.01-3.33-0.03-5-0.04
			c-0.7-1.66,1.81-3.33-0.02-4.98c0.01-0.31,0.03-0.63,0.04-0.94c2-6.18,1.32-7.56-4.02-8.22c-0.17-1.69,0.57-4.2-1.9-4.34
			c-2.3-0.13-3.05,2.04-3.2,4.15c-0.35,0.1-0.6-0.01-0.78-0.32c-0.48-1.06-1.37-1.29-2.42-1.21c-1.65-0.89-2.9-2.17-3.81-3.8
			c-0.32-0.43-0.64-0.86-0.96-1.29c-1.16-0.97-1.85-2.19-2.05-3.69c-0.23-0.43-0.46-0.86-0.68-1.3c-0.12-0.48-0.23-0.96-0.35-1.44
			c-0.23-0.52-0.46-1.04-0.69-1.56c-0.05-0.34-0.1-0.69-0.15-1.03c0.33-0.57,0.66-1.14,0.98-1.71c23.03,0.01,46.06,0.01,69.09,0.02
			c1.74,1.23,3.48,2.46,5.22,3.7c0.15,1.98,0.28,3.96,0.45,5.94c0.61,7.03,1.45,7.87,8.24,8.34c1.33,2.69,2.66,2.69,4,0
			c0.34-0.13,0.68-0.27,1.03-0.4c0.66,0.13,1.32,0.26,1.97,0.4c0.94,2.82,3.33,1.66,5.09,1.67c28.72,0.07,57.44,0.04,86.16,0.07
			C466.37,195.19,469.32,194.35,469.78,198.16z"/>
		<path class="st3" d="M166.77-92.91c2.94-0.4,4.93,1.13,6.63,3.25c0.04,1.24-0.56,2.21-1.38,3.06c-1.65,1.72-2.22,3.65-1.08,5.85
			c1.29,2.5,3.55,2.14,5.62,1.52c3.19-0.95,3.61,1.06,4.05,3.33c0.52,2.66-0.29,4.1-3.22,4.11c-2.05,0-3.98,0.46-4.47,2.95
			c-0.01,1-0.03,2-0.04,3c0.57,2.84,5.86,2.39,4.55,6.53l-0.1,0.15c-1.35,0.11-1.6,1.18-1.92,2.19c-0.26,0.29-0.52,0.57-0.78,0.86
			c-1.72,0.39-2.83-0.7-3.93-1.69c-1.56-1.4-3.23-1.58-5.05-0.67c-1.95,0.98-2.34,2.69-1.92,4.64c0.68,3.2-0.05,5.12-3.82,5.15
			c-1.99,0.02-3.1-0.31-3.33-2.54c-0.23-2.28-0.46-4.72-3.45-5.36c-2.71-0.58-3.97,1.21-5.12,3.06c-1.76,2.84-3.36,1.4-5.32,0.18
			c-2.37-1.48-2.24-2.93-0.68-4.82c1.43-1.72,2.6-3.45,1.02-5.78c-1.54-2.27-3.53-2.05-5.73-1.43c-2.7,0.76-3.46-0.82-3.87-3.1
			c-0.4-2.21-0.55-4.14,2.37-4.3c2.53-0.14,4.55-0.74,5.21-3.58c0.64-2.73-1.17-3.88-3.02-5.09c-1.16-0.76-2.01-1.74-1.88-3.26
			c0.59-0.6,1.04-1.24,0.65-2.14c2.49-0.96,4.83-2.56,7.32,0.44c1.28,1.54,3.36,0.95,4.93-0.33c1.25-1.02,1.86-2.35,1.48-3.94
			c-0.28-1.17-1.21-2.67-2.27-1.31c-2.45,3.15-3.75,1.44-5.75-0.48c-2.35-2.25-4.28-0.69-5.34,1.7c-0.5,1.14-0.27,2.6-0.38,3.91
			c-0.66,0.14-1.33,0.29-1.99,0.43c-1.19-0.2-2.37-0.39-3.55-0.59c-0.06-0.99-0.1-1.99-0.19-2.98c-0.38-4-2.3-5.05-5.43-2.64
			c-1.71,1.31-2.87,2.01-4.59,0.18c-1.6-1.69-1.49-2.81,0.14-4.58c2.94-3.21,2.25-5.21-1.94-5.96c-2.17-0.39-3.35-1.08-3.29-3.42
			c0.06-2.54,1.61-2.7,3.67-2.92c4.25-0.45,5.02-2.28,2.42-5.79c-1.2-1.62-1.62-2.75,0.05-4.21c1.6-1.4,2.73-1.74,4.58,0.03
			c3.14,3.01,5.24,2.32,6-1.91c0.4-2.25,1.25-3.28,3.44-3.33c2.67-0.07,2.59,1.67,2.75,3.67c0.31,4.13,2.54,5.2,5.82,2.64
			c1.94-1.52,2.97-1.28,4.55,0.31c1.9,1.92,0.89,2.94-0.55,4.46c-2.71,2.87-2.01,5.02,1.89,5.74c2.04,0.38,3.46,0.61,3.39,3.17
			c-0.08,2.79-1.39,3.22-3.87,2.97c-2.5-0.25-3.71,1.52-3.41,3.81c0.33,2.44,2.06,3.34,4.41,2.48c3.9-1.43,6.84-1.52,6.89,3.93
			c0.02,1.89,1.55,2.88,3.31,3.23c1.93,0.39,3.13-0.71,4.03-2.26C165.79-91.21,166.28-92.06,166.77-92.91z M164.92-72.5
			c-0.03-4.42-3.53-7.87-8-7.89c-4.15-0.02-8.01,3.84-8.02,8.02c-0.01,4.34,4.12,8.39,8.41,8.24
			C161.51-64.26,164.94-68.04,164.92-72.5z M128.68-105.53c0.13,3.88,3.25,6.92,6.56,6.56c3.87-0.42,5.92-2.89,6.09-6.67
			c0.14-3.21-3.36-6.37-6.63-6.08C130.75-111.37,128.96-108.85,128.68-105.53z"/>
		<path class="st1" d="M318.81,226.42c-0.51,2.47-2.13,3.48-4.54,3.83c-10.75,1.58-21.46,3.6-32.25,4.82
			c-16.13,1.82-32.35,2.6-48.58,2.05c-17-0.58-33.89-2.39-50.62-5.49c-3.41-0.63-6.93-0.22-10.29-1.44
			c-1.94-0.71-3.93-1.07-3.78-3.76c1.65-0.11,3.3-0.3,4.96-0.3c42.06-0.02,84.12-0.04,126.18-0.01
			C306.2,226.13,312.5,226.32,318.81,226.42z"/>
		<path class="st3" d="M318.81,226.42c-6.31-0.11-12.62-0.3-18.92-0.3c-42.06-0.02-84.12-0.01-126.18,0.01c-1.65,0-3.3,0.2-4.96,0.3
			c-11-0.21-21.99-0.42-32.99-0.62c-0.11-2.73,1.76-2.66,3.67-2.65c4.45,0.03,8.9,0.04,13.35-0.01c1.55-0.02,3.45,0.58,4.08-1.71
			c1.62-0.01,3.23-0.01,4.85-0.02c1.38,2.64,2.76,2.63,4.15,0.01c3.28,0,6.57,0,9.85,0.01c1.38,2.6,2.76,2.6,4.16,0.01
			c3.28-0.01,6.56-0.02,9.84-0.03c1.04,2.39,2.09,2.4,3.16,0.01c3.28-0.01,6.57-0.02,9.85-0.03c1.37,2.66,2.75,2.65,4.15,0.02
			c3.62,0,7.23,0,10.85,0c1.04,2.39,2.09,2.4,3.16,0.02c5.28-0.01,10.56-0.01,15.85-0.02c3.1,2.5,9.07,2.5,12.14-0.01
			c2.95,0.01,5.9,0.02,8.85,0.03c1.37,2.59,2.76,2.57,4.16,0.03c2.95-0.01,5.9-0.02,8.84-0.02c2.05,2.7,4.1,2.7,6.15-0.01
			c0.95-0.01,1.9-0.01,2.85-0.02c0.96,2.77,3.33,1.7,5.11,1.7c28.91,0.07,57.83,0.06,86.74,0.03c1.75,0,3.69,0.64,5.2-0.91
			c0.65,0.04,1.31,0.09,1.96,0.13c0.65,0.92,1.31,1.84,1.96,2.76c-1.4,1.83-3.39,0.92-5.08,0.94
			C356.68,226.24,337.74,226.32,318.81,226.42z"/>
		<path class="st3" d="M260.75-191.91c-0.32,0.36-0.65,0.72-0.97,1.08c-1.15-0.1-2.3-0.29-3.46-0.29c-3.71-0.02-5.28,2.18-3.55,5.35
			c1.09,1.99,1.82,3.47-0.49,5.05c-2.41,1.65-3.62,0.75-5.2-1.4c-2.39-3.28-4.88-2.73-6.3,1.34c-0.79,2.28-1.74,3.4-4.26,2.85
			c-2.67-0.58-2.64-2.23-2.44-4.49c0.4-4.42-1.58-5.67-5.66-3.5c-2.09,1.11-3.3,0.91-4.54-1c-1.33-2.05-1.41-3.63,1.11-4.76
			c1.69-0.75,2.52-2.08,2.25-4c-0.29-2.07-1.89-2.68-3.56-2.9c-2.76-0.37-3.16-1.9-2.5-4.23c0.6-2.13,1.59-3.14,3.96-2.18
			c1.62,0.66,3.28,0.57,4.48-1.04c1.33-1.79,0.87-3.44-0.46-4.96c-1.76-2.01-0.72-3.22,1.09-4.35c1.8-1.11,3.36-1.49,4.47,0.87
			c0.84,1.78,2.02,3.09,4.26,2.58c1.92-0.44,2.62-1.84,2.83-3.64c0.34-2.88,2.29-2.8,4.43-2.41c2.55,0.46,2.74,1.95,1.92,4.04
			c-0.67,1.71-0.44,3.28,1.13,4.45c1.62,1.22,3.13,0.73,4.54-0.39c2.09-1.65,3.51-1.05,4.83,1.11c1.22,1.98,0.85,3.01-1.03,4.45
			c-4.1,3.14-3.71,5.61,1.28,7.01C262.81-196.19,261.16-194.02,260.75-191.91z M241.24-190.96c3.56-0.12,6.87-3.63,6.76-7.18
			c-0.11-3.77-3.42-6.83-7.16-6.64c-3.95,0.2-6.58,3.24-6.34,7.3C234.73-193.76,237.74-190.84,241.24-190.96z"/>
		<path class="st4" d="M17.88,170.94c-4.42-9.91-4.81-19.67,0.35-29.56c7.09-13.59,26.47-18.69,39.54-10.16
			c0.64,1.02,1.29,2.04,1.93,3.06c0,0.93,0,1.86,0,2.79c-4.6,0.73-7.77-3.07-12.12-3.68c-10.27-1.45-17.7,2.71-23.77,10.33
			c-3.93,4.94-3.83,19.19-0.5,24.74c5.32,8.85,20.97,13.9,31.28,8.17c1.69-0.94,3.23-1.57,5.12-1.36c-0.02,1.67-0.03,3.35-0.05,5.02
			c-9.05,3.45-18.15,5.85-27.79,2.09c-2.41-0.94-3.99,0.85-5.27,2.7c-0.15,0.07-0.3,0.15-0.44,0.22c-1.7,0.84-2.65,4.17-4.58,2.94
			c-2.31-1.47,1.37-3.22,1-5.16C25.57,178.06,24.27,174.69,17.88,170.94z"/>
		<path class="st5" d="M180.79-127.87c-3.98-2.01-8.29-2.29-12.63-2.4c-6.36-0.16-11.21-2.3-14.91-8.17
			c-2.56-4.06-6.61-7.44-10.22-10.75c-3.48-3.19-0.69-4.67,0.47-6.54c1.2-1.94,1.58-4.47,5.81-3.31c5.44,1.49,10.18,4.89,15.97,5.28
			c5.13,0.35,8.44,3.6,10.78,7.9c2.39,4.39,4.7,8.82,8.72,12.02c-0.15,2.92-1.58,1.69-2.88,0.89c-3.92-2.42-7.84-4.84-11.76-7.26
			c-0.58-1.97-1.27-3.97-3.86-3.6c-1.67,0.24-2.66,1.52-2.35,3.21c0.5,2.71,2.95,2.06,4.77,2.42c0.32,0.06,0.66,0,0.98-0.01
			c3.72,2.47,7.46,4.91,11.15,7.42C182.18-129.86,184.4-128.77,180.79-127.87z"/>
		<path class="st2" d="M26.58,185.06c1.28-1.85,2.86-3.64,5.27-2.7c9.64,3.77,18.74,1.36,27.79-2.09c0.2,2.59,0.39,5.18,0.59,7.77
			c-0.58,2.27,1.11,3.13,2.56,4.15c0.73,0.32,1.46,0.93,2.19,0.92c14.3-0.05,28.59-0.16,42.89-0.27c0.25-0.19,0.51-0.39,0.76-0.58
			c-1.41,2.26-3.69,1.89-5.81,1.89c-8.46,0.02-16.93-0.02-25.39,0.02c-3.94,0.02-6.87,1.28-6.65,5.98
			c-7.64-1.99-14.66-5.82-22.48-7.38c-6.29-1.25-12.5-2.99-17.95-6.73C29.35,185.35,27.85,185.37,26.58,185.06z"/>
		<path class="st6" d="M488.51,170.04c3.98,0.59,8.06-0.56,11.99,0.73c3.88,7.08,4.5,14.21,0.3,21.41c0,0-0.13-0.14-0.13-0.14
			c2.25-5.21,0.14-10.45,0.07-15.67c-0.06-4.32-1.61-5-6.1-3.01c-8.61-0.04-17.22-0.08-25.83-0.13c-0.79-1.12-1.97-1.06-3.14-1.07
			c-14.91-0.07-29.83,0.39-44.7-0.97c0.57-4.21-1.31-8.61,1.01-12.67c0.78,2.45,0.49,4.93,0.12,7.39c-0.45,2.96,0.56,4.29,3.7,4.27
			C446.69,170.08,467.6,170.08,488.51,170.04z"/>
		<path class="st1" d="M469.78,198.16c-0.46-3.8-3.41-2.96-5.75-2.97c-28.72-0.03-57.44,0-86.16-0.07c-1.76,0-4.15,1.15-5.09-1.67
			c3.32-0.14,6.64-0.28,9.96-0.41c6.36,0,12.71,0,19.07,0c5.65,0,11.29,0,16.94,0c5.35,0,10.71,0,16.06,0c8.64,0,17.29,0,25.93,0
			c1.02,0,2.05,0,3.07,0c2.7,0.18,5.39,0.35,8.09,0.53C471.48,195.22,472.69,197.64,469.78,198.16z"/>
		<path class="st4" d="M212.67-129.79c0.08,1.35-0.72,1.91-1.9,2.13c-8.3-3.84-16.09-8.59-23.87-13.35
			c-1.21-0.74-3.19-1.59-2.36-3.26c1.16-2.32,2.95-0.42,4.22,0.23C197.03-139.78,204.96-134.97,212.67-129.79z"/>
		<path class="st4" d="M232.57-154.75c-0.24,1.57,1.79,3.14,0.45,4.5c-0.84,0.85-1.96-0.65-2.98-1c-3.88-6.92-7.83-13.8-11.61-20.78
			c-0.84-1.55-3-3.79-0.61-5.11c2.13-1.18,2.74,1.7,3.6,3.15C225.18-167.6,228.86-161.17,232.57-154.75z"/>
		<path class="st4" d="M183.78-101.79c5.15,0.05,10.3,0.06,15.44,0.18c1.88,0.04,4.82-0.39,4.82,2.02c0,2.27-2.89,1.48-4.57,1.5
			c-8.8,0.11-17.61,0.09-26.41,0.12c-0.53-2.7,0.88-3.58,3.3-3.62C178.84-101.63,181.31-101.73,183.78-101.79z"/>
		<path class="st7" d="M260.66-188.84c2.89,0.38,3.14,2.62,3.17,4.79c0.08,7.6,0.05,15.21,0.01,22.81
			c-0.01,1.24,0.35,3.15-1.45,3.14c-2.21-0.01-1.59-2.13-1.61-3.47c-0.13-7.43-0.17-14.87-0.24-22.3
			C260.58-185.53,260.62-187.18,260.66-188.84z"/>
		<path class="st8" d="M170.15-140.2c3.92,2.42,7.84,4.84,11.76,7.26c1.3,0.8,2.73,2.02,2.88-0.89c1.48,0.98,4.5,0.71,4.39,2.62
			c-0.12,2.03-1.53,4.6-3.19,5.77c-2.12,1.49-3.84-0.7-5.19-2.42c3.61-0.9,1.38-1.99,0.05-2.89c-3.69-2.51-7.43-4.95-11.15-7.42
			C169.85-138.85,170-139.53,170.15-140.2z"/>
		<path class="st2" d="M17.88,170.94c6.39,3.74,7.69,7.12,4.68,12.12c-0.97-3.44-4.96-3.43-6.77-5.91
			C16.48,175.09,17.18,173.01,17.88,170.94z"/>
		<path class="st2" d="M408.78-194.83c-6.48-1.25-12.19-4.19-17.47-8.04c-0.96-0.7-1.53-1.71-1.53-2.95
			C396.76-203.27,403.35-200.06,408.78-194.83z"/>
		<path class="st9" d="M156.86,221.44c-0.64,2.29-2.53,1.69-4.08,1.71c-4.45,0.05-8.9,0.04-13.35,0.01
			c-1.91-0.01-3.78-0.08-3.67,2.65c-1.92,0.2-3.13-0.42-2.96-2.6c1.27-0.71,1.95-2.48,3.81-2.11
			C143.37,221.22,150.11,221.33,156.86,221.44z"/>
		<path class="st2" d="M331.78-212.81c-0.02,0.16,0.01,0.36-0.07,0.49c-2.33,3.46-14.72,5.17-17.93,2.48
			C319.56-212.17,325.73-212.16,331.78-212.81z"/>
		<path class="st6" d="M471.91,193.56c-2.7-0.18-5.39-0.35-8.09-0.53c1.11-1.3,2.62-0.72,3.98-0.87c8.94-0.02,17.88-0.05,26.82-0.07
			c2.02-0.01,4.04-0.03,6.05-0.04l0.13,0.14c-1.37,1.79-3.35,1.07-5.07,1.1C487.79,193.44,479.85,193.48,471.91,193.56z"/>
		<path class="st1" d="M375.76,219.24c3.13-1.69,6.53-2.12,10.02-2.08c-0.36,3.04-4.27,1.82-5.13,4.26
			c-0.32-0.06-0.65-0.07-0.97-0.02C378.37,220.68,377.06,219.96,375.76,219.24z"/>
		<path class="st2" d="M434.78-168.83c-4.32-2.01-6.92-5.39-8-10C430.41-176.27,433.1-172.95,434.78-168.83z"/>
		<path class="st2" d="M425.78-179.83c-4.31-0.46-6.56-3.27-7.99-7.01C421.56-185.77,423.46-182.56,425.78-179.83z"/>
		<path class="st2" d="M349.78-213.82c-1.9,3.38-4.44,2.27-7,0.99C344.89-214.75,347.45-213.45,349.78-213.82z"/>
		<path class="st2" d="M417.79-186.84c-2.39-0.27-3.72-1.61-4.01-4C416.15-190.54,417.49-189.21,417.79-186.84z"/>
		<path class="st2" d="M308.78-209.82c-0.41,2.12-1.35,2.62-3,0.99C306.5-210.01,307.68-209.8,308.78-209.82z"/>
		<path class="st9" d="M379.68,221.4c0.33-0.04,0.65-0.04,0.97,0.02c0.01,1.24,0.02,2.47,0.04,3.71c-0.65-0.92-1.31-1.84-1.96-2.76
			C379.04,222.05,379.36,221.72,379.68,221.4z"/>
		<path class="st6" d="M288.77-41.24c0.68-0.05,1.37-0.1,2.05-0.15c1.64-0.04,3.28-0.09,4.92-0.13c2.03,0.57,4.06,0.58,6.09,0.01
			c3.3,0.5,6.61,0.49,9.91-0.01c1.81,0.13,3.62,0.37,5.43,0.37c27.06,0.02,54.11,0.02,81.17,0c2.15,0,4.3-0.21,6.45-0.32
			c1.65,0.11,3.29,0.27,4.94,0.31c9.36,0.23,12.93,3.83,12.94,13.1c0.01,22.24-0.01,44.47,0,66.71c0,1.49,0.08,2.98,0.12,4.47
			c-0.01,13.57,0.03,27.15-0.04,40.72c-0.01,2.79,1.46,3.27,3.78,3.22c7.79-0.15,15.57-0.21,23.36-0.31c2.63,0.08,5.29,0.4,7.9,0.17
			c3.6-0.32,4.71,1.43,4.62,4.6c-0.02,0.82-0.09,1.67,0.04,2.47c0.84,5.33-0.39,9.3-6.52,10.13c-8.73-1.34-17.53-0.97-26.31-0.97
			c-6.03,0-6.79,0.8-6.81,7.01c-0.02,6.65-0.01,13.3-0.01,19.96c-0.02,6.32-0.03,12.64-0.05,18.97c-0.21-0.23-0.41-0.46-0.62-0.69
			c-0.22-2.7-2-3.36-4.32-3.32c0.44-2.73,1.02-5.4,0.04-8.2c-1.93-5.5-3.04-11.09-1.12-16.89c0.27-0.83,0.29-2.22-1.06-2.34
			c-1.15-0.11-1.43,1.04-1.87,1.95c-1,2.06-0.45,5.27-3.95,5.55c-0.01-37.48-0.02-74.96-0.03-112.44c0-12.16-0.12-24.32,0.07-36.48
			c0.06-3.93-1.6-5.93-5.21-6.6c-1.62-0.3-3.29-0.46-4.93-0.46c-33.98-0.03-67.96-0.01-101.94-0.05c-2.37,0-4.59,0.55-6.87,0.96
			c-2.06,0.38-2.11,1.79-2.27,3.29c-2.32-0.17-4.6-0.09-6.94,0.26c-14.91,2.22-29.66,5.5-44.71,6.81c-0.07-1.1-0.14-2.19-0.2-3.29
			c4.88-0.67,9.78-1.28,14.65-2.03c11.22-1.72,22.44-3.43,33.62-5.36c1.72-0.3,4.22-0.42,4.59-3.05c0.33-2.34-1.05-3.67-3.02-4.55
			c0.11-0.64,0.22-1.28,0.33-1.91l-0.08,0.05C287.5-40.21,288.14-40.72,288.77-41.24z"/>
		<path class="st10" d="M449.87,86.76c-7.79,0.1-15.57,0.16-23.36,0.31c-2.32,0.04-3.79-0.44-3.78-3.22
			c0.07-13.57,0.04-27.14,0.04-40.72c11.65-2.27,21.16,1.41,27.39,11.37C456.76,65.04,456.24,76.06,449.87,86.76z"/>
		<path class="st3" d="M361.16-166.01c-2.59,7.66-8.65,11.21-16.83,9.61c-3.23-0.63-6.37-1.7-9.55-2.57c-0.82-0.4-1.41-1.35-2.53-1
			c-1.16-2.19-3.41-3.07-5.32-4.34c-4.18-1.92-4.88-6.63-7.71-9.63c-0.81-2.1-1.51-4.2-2.58-6.24c-2.4-4.56-0.38-8.7,2.06-12.64
			c1.03-0.34,2.06-0.69,3.09-1.03c2.82,0.87,4.54,3.24,6.75,4.93c1.06,0.81,2.33,1.54,3.61,0.47c1.3-1.09,0.74-2.35,0.07-3.57
			c-0.86-1.59-1.67-3.2-2.5-4.8c1.31-1.47,3.03-1.19,4.66-0.99C346.32-196.4,363.57-181,361.16-166.01z M341.66-168.76
			c-1.13-3.06-3.58-4.71-6.96-4.96c-1.66-0.12-3.17,0.73-2.72,2.58c0.84,3.46,3.53,4.98,6.89,5.24
			C340.53-165.77,341.72-166.56,341.66-168.76z M327.71-183.85c-1.72-0.04-3.18,0.32-3,2.04c0.31,2.95,2.71,4.01,5.2,4.53
			c1.66,0.35,3.16-0.44,2.96-2.36C332.55-182.75,329.85-183.19,327.71-183.85z M349.47-164.92c1.8,0.12,3.09-0.46,2.99-2.04
			c-0.18-2.97-2.63-3.92-5-4.6c-1.25-0.36-2.46,0.43-2.39,1.76C345.2-166.96,347.3-165.71,349.47-164.92z M355.47-174.58
			c-0.83-2.01-2.41-3.33-4.7-3.61c-1.17-0.14-2,0.8-1.75,1.84c0.61,2.48,2.48,3.83,4.95,4.02
			C355.05-172.24,355.61-173.26,355.47-174.58z M340.56-187.79c1.17-0.03,2.28-0.34,1.99-1.61c-0.57-2.49-2.81-2.97-4.89-3.34
			c-1.16-0.21-1.93,0.57-1.52,1.79C336.83-188.83,338.57-188.04,340.56-187.79z"/>
		<path class="st10" d="M488.51,170.04c-20.91,0.03-41.81,0.04-62.72,0.13c-3.14,0.01-4.15-1.31-3.7-4.27
			c0.37-2.45,0.66-4.94-0.12-7.39c1.11-3.35,0.88-6.72,0.13-10.1c0.21,0.23,0.41,0.46,0.62,0.69c1.45,0.98,3.07,1.08,4.76,1.07
			c14.43-0.05,28.87-0.06,43.3-0.08c4.32,0.01,8.66,0.21,12.97-0.02c3.89-0.21,5.57,1.79,5.86,5.19
			C490.02,160.23,490.37,165.23,488.51,170.04z M455.59,156.13c0-0.01,0-0.02,0-0.03c-7.81,0-15.63-0.04-23.44,0.03
			c-1.64,0.02-4.14-0.82-4.24,2.01c-0.11,2.87,2.37,2.22,4.05,2.23c15.46,0.04,30.92,0.06,46.38-0.03c1.58-0.01,4.27,0.96,4.28-1.87
			c0.01-2.96-2.72-2.31-4.59-2.32C470.55,156.09,463.07,156.13,455.59,156.13z"/>
		<path class="st5" d="M363.78-48.8c-9.91,0.46-9.85,0.45-10.93-9.73c-0.46-4.28-1.2-8.54-1.86-12.8c-0.48-3.05-0.48-5.96,1.84-8.38
			c0.99-0.38,1.97-0.76,2.96-1.14c2.45-0.27,4.69,0.65,7,1.19c3.65-0.05,7.31-0.11,10.96-0.16c-1,1.84-3.11,1.61-4.65,2.43
			c-7.41,3.94-9.02,13.11-3.29,19.51c0.34,0.34,0.68,0.68,1.01,1.01c0.33,0.35,0.47,1.3,1.2,0.39c-0.42-0.11-0.84-0.22-1.26-0.34
			c-0.34-0.34-0.68-0.67-1.01-1.01c-0.28-1.11-0.44-2.28-0.86-3.33c-2.03-5.08-0.9-10.16,3.09-13.49
			c3.15-2.63,10.16-3.34,13.22-1.35c4.68,3.05,6.89,8.52,5.43,13.41c-1.37,4.58-6.07,7.79-11.41,7.95
			c-1.57,0.05-3.45-0.69-5.19,1.29c1.37,0.16,2.17,0.26,2.98,0.35c6.19,0.73,11.28-1.23,14.48-6.66c2.93-4.96,2.11-9.86-1.28-14.43
			c-0.59-0.8-1.02-1.74-0.44-2.78c2.1-0.32,4.21-0.62,6.31-0.98c1.23-0.21,1.93-1.28,1.16-2.08c-1.68-1.74-3.62-0.25-5.5,0.02
			c-2.11,0.3-2.97,0.98-1.94,3.07c-3.42-1.01-6.85-2.01-10.27-3.02c6.33-0.95,11.81-5.81,18.97-3.49c2.07,0.67,2.69,1.4,2.92,3.01
			c1.11,7.67,2.14,15.35,3.2,23.03c0.22,1.62-0.01,2.98-1.84,3.52c-1.12-0.18-2.2-0.13-3.16,0.58c-0.61,0.11-1.22,0.22-1.84,0.33
			c-0.86-0.1-1.66-0.06-2.07,0.88c-3.32,0.47-6.72-0.48-10.02,0.53c-1.08-0.26-2.09-0.18-2.97,0.58c0,0,0.02-0.02,0.02-0.02
			c-0.66,0.06-1.31,0.12-1.97,0.18c-0.53,0.24-1.06,0.47-1.59,0.71l-0.14-0.28c0,0-0.31,0.05-0.31,0.05
			C371.07-49.98,367.34-50.04,363.78-48.8z M374.98-56.83c5.22,0.12,9.46-3.64,9.75-8.65c0.28-4.83-3.95-9.2-9.04-9.36
			c-5.11-0.16-9.52,3.71-9.86,8.65C365.52-61.66,370.13-56.94,374.98-56.83z"/>
		<path class="st4" d="M470.78,150.1c-14.43,0.02-28.87,0.03-43.3,0.08c-1.69,0.01-3.31-0.09-4.76-1.07
			c0.02-6.32,0.03-12.64,0.05-18.97c6.75-0.02,13.5-0.02,20.24-0.06c1.76-0.01,3.68,0.48,5.03-1.26c4.3,2.66,9.03,1.09,13.55,1.23
			c9.12,0.29,10.81,1.91,9.92,11.17C471.22,144.18,470.32,147.08,470.78,150.1z"/>
		<path class="st11" d="M448.04,128.83c-1.35,1.73-3.26,1.25-5.03,1.26c-6.75,0.04-13.5,0.04-20.24,0.06
			c0-6.65-0.01-13.3,0.01-19.96c0.02-6.21,0.78-7.01,6.81-7.01c8.78,0,17.58-0.36,26.31,0.97
			C453.28,112.37,450.66,120.6,448.04,128.83z"/>
		<path class="st3" d="M363.83-109.85c-0.03-1.33-0.05-2.67-0.08-4c6.4-1.39,6.72-2.24,2.56-6.98c0.96-2.13,1.87-4.03,4.71-1.92
			c2.9,2.15,4.2,0.47,4.56-2.41c0.18-1.46,0.5-2.61,2.24-2.68c1.69-0.06,2.27,0.98,2.53,2.45c0.63,3.48,2.49,3.59,4.83,1.57
			c1.17-1.01,2.22-1.43,3.48-0.36c1.23,1.04,1.25,2.14,0.28,3.45c-2.09,2.83-1.55,4.64,2.19,4.85c1.5,0.09,2.6,0.41,2.65,2.19
			c0.04,1.69-0.97,2.28-2.43,2.54c-3.5,0.61-3.51,2.49-1.65,4.89c0.88,1.13,1.59,2.17,0.42,3.49c-1.1,1.23-2.22,1.13-3.47,0.16
			c-2.84-2.22-4.42-0.79-4.71,2.1c-0.35,3.5-2.38,2.92-4.58,2.44c-0.73-1.61,0.47-4.17-2.23-4.81c-1.7-0.4-2.74,0.53-3.33,2.07
			c-1.51,0.43-2.76-0.15-3.92-1.05C369.44-109.37,369.44-109.37,363.83-109.85z M383.79-113.21c-0.56-2.76-2.2-4.71-5.3-4.54
			c-3.06,0.16-4.78,2.15-4.71,5.24c0.07,3.18,1.98,4.85,5.09,4.72C382.04-107.93,383.4-110.05,383.79-113.21z"/>
		<path class="st3" d="M344.67-81.87c-2.47,1.4-2.2,2.64,0.23,3.74c0.96,0.43,1.8,1,1.43,2.23c-0.29,0.97-1.2,1.07-2.04,1.03
			c-4.93-0.22-0.75,4.61-3.2,5.75c-1.96,0.91-3.88-4.63-5.91-0.04c-0.55,1.24-2.73,1.36-2.59,0.95c1.86-5.57-8.12-1.37-5.59-6.86
			c0.75-1.61,1.36-2.61-0.46-3.63c-0.29-0.16-0.61-0.28-0.87-0.49c-0.93-0.76-0.72-2.56-0.25-2.39c5.43,1.97,1.48-8,6.8-5.32
			c1.71,0.86,2.49,1.23,3.54-0.49c1.75-2.87,3.18-2.93,3.65,0.68c0.36,2.78,1.84,2.2,3.52,1.45
			C345.59-85.18,344.82-83.37,344.67-81.87z M339.4-78.84c-0.48-1.7-1.47-3.14-3.63-3.19c-2.42-0.06-3.81,1.39-3.78,3.65
			c0.03,2,1.39,3.44,3.49,3.53C337.92-74.73,338.9-76.46,339.4-78.84z"/>
		<path class="st3" d="M351-139.76c4.82-8.47,13.05-14.32,17.68-22.95c0.34-0.63,1.27-0.95,1.93-1.41c0.8,1.27,1,3.08,2.98,3.27
			c-2.39,5.93-7.37,10.48-8.79,17.01c-0.6,2.74-3.75,3.55-6.02,4.89c-1.67,0.37-3.33,0.74-5,1.12
			C352.64-138.17,350.64-137.26,351-139.76z"/>
		<path class="st8" d="M365.8-57.87c-5.73-6.4-4.13-15.57,3.29-19.51c1.54-0.82,3.65-0.59,4.65-2.43c0.6-0.01,1.2-0.02,1.8-0.02
			c3.42,1.01,6.84,2.01,10.27,3.02l-0.03-0.03c-0.57,1.04-0.15,1.98,0.44,2.78c3.39,4.56,4.2,9.46,1.28,14.43
			c-3.21,5.44-8.29,7.4-14.48,6.66c-0.81-0.1-1.62-0.19-2.98-0.35c1.74-1.98,3.61-1.24,5.19-1.29c5.34-0.17,10.04-3.37,11.41-7.95
			c1.46-4.9-0.75-10.36-5.43-13.41c-3.05-1.99-10.07-1.28-13.22,1.35c-3.98,3.33-5.12,8.41-3.09,13.49
			c0.42,1.06,0.58,2.22,0.86,3.33C365.75-57.81,365.8-57.87,365.8-57.87z"/>
		<path class="st5" d="M373.6-160.85c-1.98-0.19-2.18-2-2.98-3.27c0.5-1.02,1-2.05,1.5-3.07c4.5-6.17,8.95-12.37,13.54-18.47
			c0.87-1.16,1.64-3.85,3.46-2.53c1.61,1.17-0.45,2.95-1.24,4.26C383.17-176.2,378.37-168.53,373.6-160.85z"/>
		<path class="st7" d="M304.81-176.76c2.19-0.24,3.24,0.36,2.15,2.75c-3.87,8.41-8.69,16.28-13.76,24
			c-0.58,0.88-1.61,1.45-2.56,0.83c-1.29-0.84-0.65-2.08-0.08-3.08c3.4-6.04,6.81-12.07,10.29-18.07c0.83-1.43,1.81-2.77,2.05-4.46
			C303.53-175.45,304.17-176.1,304.81-176.76z"/>
		<path class="st7" d="M350.72-101.8c1.5,2.47,0.63,3.86-2.08,3.89c-8.45,0.09-16.9,0.05-25.35,0.03c-1.33,0-2.99-0.12-3.08-1.78
			c-0.1-2.08,1.76-2.1,3.23-2.11c8.78-0.06,17.56-0.06,26.34-0.08C350.09-101.81,350.4-101.8,350.72-101.8z"/>
		<path class="st2" d="M329.71-196.84c0.83,1.6,1.65,3.21,2.5,4.8c0.66,1.22,1.23,2.49-0.07,3.57c-1.28,1.07-2.55,0.34-3.61-0.47
			c-2.22-1.69-3.93-4.07-6.75-4.93C322.16-200.91,326.9-196.3,329.71-196.84z"/>
		<path class="st2" d="M363.83-109.85c5.62,0.48,5.62,0.48,4.05,7.99c-4.17,0.36-4.03-3.73-5.76-5.81
			C361.22-108.74,362.45-109.72,363.83-109.85z"/>
		<path class="st2" d="M366.3-120.83c4.16,4.74,3.85,5.59-2.56,6.98C360.66-117.6,361.01-118.54,366.3-120.83z"/>
		<path class="st2" d="M362.78-79.65c-2.31-0.54-4.55-1.47-7-1.19c-0.08-2.57,0.93-4.92,3.6-4.73
			C362.69-85.33,362.93-82.38,362.78-79.65z"/>
		<path class="st2" d="M371.79-100.82c0.59-1.54,1.63-2.47,3.33-2.07c2.7,0.64,1.5,3.19,2.23,4.81
			C373.93-95.8,372.88-98.35,371.79-100.82z"/>
		<path class="st2" d="M353.78-137.83c1.67-0.37,3.33-0.74,5-1.12c-0.07,1.3,0.15,2.8-1.71,3.03
			C355.55-135.74,354-135.69,353.78-137.83z"/>
		<path class="st2" d="M295.93-176.28c0.7,0.33,0.83,0.95,0.74,1.6c-0.08,0.61-0.13,1.46-1.07,1.24c-0.73-0.17-0.82-0.92-0.74-1.57
			C294.95-175.63,294.98-176.37,295.93-176.28z"/>
		<path class="st2" d="M395.62-53.19c0.96-0.71,2.04-0.76,3.16-0.58C398.14-51.36,397.06-51.29,395.62-53.19z"/>
		<path class="st2" d="M391.71-51.98c0.42-0.94,1.21-0.98,2.07-0.88C393.55-51.49,393.25-50.29,391.71-51.98z"/>
		<path class="st1" d="M378.73-50.87c0.88-0.76,1.89-0.84,2.97-0.58c-0.31,0.22-0.61,0.45-0.92,0.67
			C380.09-50.81,379.41-50.84,378.73-50.87z"/>
		<path class="st4" d="M214.2-85.87c-2.94-13.56-2.53-26.75,4.46-39.16c7.65-13.59,19.44-21.86,34.48-24.82
			c27.5-5.43,53.08,13.16,58.15,39.77c2.68,14.09-0.52,27.18-8.68,38.88c-5.26,7.54-9.53,15.57-13.4,23.86
			c-0.47,1.01-0.42,2.27-0.6,3.42c-2.44,0.65-1.64,2.63-1.75,4.24c0,0,0.08-0.05,0.08-0.05c-1.67,0-3.33-0.01-5-0.01
			c-5.74,0-8.18-2.47-6.92-8.1c3.19-14.33,4.81-29.34,15.79-40.67c0.72-0.74,1.24-1.73,0.43-2.66c-0.82-0.94-1.83-0.37-2.74,0.04
			c-2.59,1.15-5.31,1.76-8.04,2.49c-6.85,1.84-13.64-0.86-20.28,0.06c-8.48,1.18-16.5,0.74-24.34-2.65
			c-0.77-0.33-1.67-0.8-2.31-0.08c-0.95,1.07,0.18,1.77,0.77,2.47c3.03,3.54,5.68,7.24,7.6,11.59c4.7,10.63,6.4,21.89,7.83,33.25
			c0.36,2.82-0.36,4.49-3.67,4.28c-2.82-0.18-5.66,0.01-8.49,0.03c0,0,0.07,0.02,0.07,0.02c0.18-2.01-0.22-3.79-1.91-5.09
			c-0.07-0.33-0.13-0.66-0.2-0.99c-0.27-0.63,1.23-2-0.8-1.89c-0.24-0.14-0.49-0.24-0.76-0.3c-0.15-0.63-0.31-1.26-0.46-1.89
			c0.19-1.28-0.57-1.93-1.59-2.41c-0.65-4.89-3.41-8.75-6.2-12.58c-3.41-5.87-6.66-11.85-10.74-17.31
			C214.73-83.38,214.47-84.63,214.2-85.87z"/>
		<path class="st6" d="M106.59-36.01c1.98-4.24,6.02-4.62,9.88-5.07c3.09-0.36,6.24-0.3,9.36-0.43c2.64,0.49,5.27,0.49,7.91-0.01
			c5.03,0.59,10.06,0.64,15.09-0.03c0.97,0,1.94-0.01,2.92-0.01c6.03,0.61,12.06,0.69,18.09,0.02c1.97,0.47,3.94,0.46,5.91-0.01
			c5.03,0.69,10.06,0.64,15.09,0.05c0.97,0,1.95,0,2.92,0c5.03,0.59,10.06,0.58,15.09-0.02c1.3,0.44,2.61,0.44,3.91,0.02
			c1.03,0.46,2.06,0.46,3.09,0.01c1.97,0.46,3.94,0.46,5.91-0.02c1.34,0.52,2.68,0.47,4.02,0.02c2.02,0.47,4.04,0.44,6.06,0.06
			c1.3,0.05,2.59,0.1,3.89,0.15c0.65,0.54,1.3,1.08,1.95,1.61c0,0-0.07-0.02-0.07-0.02c0.27,2.58,2.27,1.85,3.76,1.89
			c5.41,0.16,10.81,0.23,16.22,0.33c-1.98,1.24-4.17,0.37-6.25,0.64c-3.82,0.5-7.83-1.1-11.51,0.99c-4.28,1.3,0.03,4.08-1.03,5.94
			c-1.28,0.43-2.55,0.86-3.83,1.3c-3.21-1.99-6.8-2.22-10.44-2.22c-25.82,0-51.63,0-77.45,0.01c-7.33,0-14.66-0.13-21.99,0.04
			c-7.58,0.17-8.3,1.02-8.3,8.33c0,48.97,0,97.94,0,146.91c0,8.48,1.26,9.71,9.87,9.71c45.39,0,90.78,0.01,136.17-0.01
			c8.96,0,17.96-0.76,26.86-0.65c9.09,0.12,18.24,0.61,27.36,0.63c26.98,0.07,53.97,0.13,80.95-0.08c4.31-0.03,9.62,0.9,11.82-4.89
			c2.53,0.39,3.84,1.74,2.2,4.06c-1.72,2.44-3.95,4.98-7.2,4.82c-5.69-0.28-11.2,1.25-16.86,1.14
			c-40.54-0.83-81.14,1.93-121.62-2.04c-9.05-0.89-17.74,2.11-26.72,2.07c-36.59-0.16-73.19,0.31-109.77-1.04
			c-6.89-0.25-15.02,1.83-16.55-8.67c-8.2-1.53-1.68-5.45-1.32-8.34c0.14-1.14,1.01-2.45,0.66-3.34c-1.58-4.1-1.33-8.28-1.42-12.55
			c-0.13-6.33-2.46-12.69,1.26-18.8c0.77-1.26,0.55-3-0.26-4.33c-1.58-2.58-1.26-5.41-1.46-8.22c-0.54-7.34,1.01-14.55,1.06-21.85
			c0.18-25.6-0.74-51.22,0.99-76.8c0.09-1.31-0.06-2.89,0.61-3.85c2.07-2.96,1.79-5.74-0.38-8.22c-2.37-2.71-4.01,1.21-6.18,1.04
			L106.59-36.01z"/>
		<path class="st10" d="M80.74,118.19c-0.77-10.77-1.5-21.54-2.33-32.3c-0.14-1.83-0.61-3.63,0.51-5.32
			c2.9,0.87,7.29-3.13,8.68,2.66c0.78,12.45,1.56,24.91,2.35,37.37c-3.05,0.42-6.1,0.58-9.15,0.04
			C80.77,119.82,80.76,119.01,80.74,118.19z"/>
		<path class="st2" d="M215-82.14c4.08,5.46,7.33,11.44,10.74,17.31c-4.04-0.22-8.04,1.86-12.16,0.14c-0.59-0.25-1.88,0.56-2.54,1.2
			c-4.71,4.52-10.72,7.05-16.12,10.49c-4.52,2.88-16.28,0.81-20.27-3.09c0.26-0.29,0.52-0.57,0.78-0.86
			c1.52,0.04,2.52-0.37,1.91-2.19c0,0,0.1-0.15,0.1-0.15c2.79,0.6,5.42,1.15,7.66-1.64c1.28-1.61,2.96-1.03,4.02,0.76
			c-0.32,2.31-3.86,2.11-3.82,4.75c1.62,1.08,2.99,0.23,4.25-0.49c6.91-3.96,13.81-7.96,20.66-12.04c1.02-0.61,2.98-1.21,2.16-2.81
			c-0.81-1.59-2.35,0.31-3.58,0.03C210.17-74.92,212.12-78.78,215-82.14z"/>
		<path class="st6" d="M104.64,74.14c0.05-33.88,0.1-67.76,0.18-101.65c0.01-2.93-0.56-6.03,1.77-8.5c0,0,0.26,0.24,0.26,0.24
			c-0.02,4.32-0.06,8.64-0.06,12.96c0,46.54-0.01,93.07,0.01,139.61c0,2.85,0.57,6.04-4.05,5.34c0.01-0.32,0.02-0.63,0.02-0.95
			c2.24-0.47,2.05-2.18,2.04-3.87C104.73,102.93,104.69,88.53,104.64,74.14z"/>
		<path class="st11" d="M96.81,120.66c1.99,0.18,3.97,0.36,5.96,0.54c0,0.32-0.01,0.63-0.02,0.95c-10.49,0-20.99,0-31.48,0
			c-9.55,0-9.52,0-9.5,9.2c0.03,16.16-0.03,32.32,0.05,48.48c0.01,2.89-0.37,5.61-1.58,8.22c-0.2-2.59-0.39-5.18-0.59-7.77
			c0.02-1.67,0.03-3.35,0.05-5.02c0.46-12.73,0.5-25.46-0.01-38.18c0-0.93,0-1.86,0-2.79c0.02-1.04,0.04-2.08,0.05-3.12
			c0.82-3.44-0.87-7.15,1.08-10.48c0,0,0.49,0.02,0.49,0.02l0.42-0.25c0.69,0.07,1.38,0.13,2.06,0.2c3.66,0,7.31,0,10.97,0
			c1.02,0.34,2.03,0.37,3.02-0.09c1,0.03,2,0.05,2.99,0.08c3.05,0.55,6.1,0.38,9.15-0.04c0.69,0.07,1.38,0.14,2.07,0.22
			c0.48,0,0.97-0.01,1.45-0.01C94.58,120.76,95.69,120.71,96.81,120.66z"/>
		<path class="st3" d="M101.32,68.81c0.72,3.98,0.19,6.34-4.99,6.19c-3.95-0.11-4.29-1.78-4.01-4.73
			C94.69,65.87,97.95,67,101.32,68.81z"/>
		<path class="st3" d="M85.55,70.25c0.48,2.64,3.66,5.97-1.8,7.09c-0.94-0.18-1.84-0.22-2.53,0.62c-0.82-0.14-1.64-0.28-2.46-0.42
			C76.4,71.21,77.54,69.99,85.55,70.25z"/>
		<path class="st2" d="M231.82-41.43c-2.02,0.38-4.04,0.41-6.06-0.06c-0.54-6.33,5.22-4.63,8.22-6.45c0.27,0.06,0.52,0.16,0.76,0.3
			c0.27,0.63,0.53,1.26,0.8,1.89c0.07,0.33,0.13,0.66,0.2,0.99c-0.04,0.66-0.08,1.32-0.12,1.98
			C234.25-42.65,232.52-43.5,231.82-41.43z"/>
		<path class="st5" d="M59.47,82.7c-1.86-0.06-1.8-1.45-1.76-2.8c0.04-1.24,0.39-2.43,1.86-2.41c1.78,0.02,2.7,1.27,2.69,2.91
			C62.24,81.97,61.01,82.57,59.47,82.7z"/>
		<path class="st2" d="M231.94-52.25c1.02,0.48,1.78,1.13,1.59,2.41C232.06-50.03,231.75-50.97,231.94-52.25z"/>
		<path class="st7" d="M59.74,131.16c-0.02,1.04-0.04,2.08-0.05,3.12c-0.64-1.02-1.29-2.04-1.93-3.06
			C58.42,131.2,59.08,131.18,59.74,131.16z"/>
		<path class="st2" d="M134.78-86.41c0.66-0.14,1.33-0.29,1.99-0.43l0.02,0.02c0.39,0.9-0.06,1.54-0.65,2.14
			C135.32-84.97,134.88-85.55,134.78-86.41z"/>
		<path class="st1" d="M215-82.14c-2.88,3.36-4.83,7.22-6.21,11.4c-0.21,0.12-0.42,0.13-0.65,0.06c-1.61-0.15-3.25-0.37-3.3,2.02
			c-0.66,0.34-1.32,0.67-1.97,1.01c-1.93-1.88-1.85-0.21-1.97,1.12c-2.12,1.55-4.12,3.29-6.8,3.84c-1.94-0.29-3.61-0.01-4.37,2.13
			c-0.19,0.15-0.38,0.29-0.6,0.4c-1.06-1.79-2.74-2.37-4.02-0.76c-2.24,2.8-4.87,2.24-7.66,1.64c1.31-4.15-3.98-3.7-4.55-6.54
			c0.99-0.15,1.87-0.45,1.73-1.71c-0.11-0.99-0.91-1.14-1.69-1.29c0.49-2.5,2.42-2.95,4.47-2.95c2.93,0,3.74-1.45,3.22-4.11
			c-0.44-2.26-0.86-4.28-4.05-3.33c-2.07,0.62-4.32,0.98-5.62-1.52c-1.14-2.2-0.57-4.13,1.08-5.85c0.82-0.85,1.41-1.82,1.38-3.06
			c6.71-3.26,13.77-4.5,21.23-4.24c4.95,0.17,9.1,3.56,14.33,2.81c3.14-0.45,2.1,4.8,5.24,5.22C214.47-84.63,214.73-83.38,215-82.14
			z"/>
		<path class="st0" d="M319.22-173.96c2.83,3,3.53,7.71,7.71,9.63c0.03,3.59,2.09,4.68,5.32,4.34c1.11-0.35,1.71,0.61,2.53,1
			c4.5,3.91,4,8.89,2.99,13.98c-1.32,0.42-2.63,0.83-3.95,1.25c-1.62-1.63-1.83-0.37-2,0.97l0.01,0c-5.17,0.54-9.73,2.87-13.97,5.55
			c-2.66,1.67-4.43,1.68-6.48-0.49c-0.91-0.96-1.81-2.32-2.94-2.59c-4.48-1.08-6.04-3.58-5.79-8.21c0.21-3.91,0.96-7.18,4.32-9.38
			c2.08-1.36,2.04-3.66,2.84-5.59C311.72-168.1,313.4-172.88,319.22-173.96z"/>
		<path class="st7" d="M339.66-55.33c-0.78,2.26-2.31,1.28-3.53,0.59c-6.07-3.4-12.1-6.85-18.12-10.34
			c-1.86-1.07-3.67-2.24-5.41-3.5c-0.75-0.55-1.81-1.37-1.23-2.44c0.7-1.28,2.08-0.91,3.08-0.38c4.41,2.29,8.79,4.65,13.13,7.07
			c3.33,1.85,6.63,3.74,9.85,5.77C338.5-57.88,339.54-56.91,339.66-55.33z"/>
		<path class="st7" d="M333.82-143.75c1.32-0.42,2.63-0.83,3.95-1.25c2.42,0.68,2.74,2,0.61,3.29c-7.65,4.61-15.38,9.1-23.12,13.54
			c-0.93,0.53-2.39,0.94-3.02-0.46c-0.51-1.14,0.74-1.61,1.45-2.27c4.44-4.12,10.15-6.19,15.13-9.42c1.1-0.72,2.42-1.13,3.01-2.46
			c0,0-0.01,0-0.01,0C332.63-142.81,333.36-143.01,333.82-143.75z"/>
		<path class="st0" d="M363.78-48.8c3.56-1.25,7.28-1.18,10.97-1.44c0.07,7.71,0.07,7.51-6.35,7.47
			C363.87-42.79,364.27-45.99,363.78-48.8z"/>
		<path class="st7" d="M286.87-39.69c0.1-1.61-0.7-3.59,1.75-4.24c0.05,0.9,0.1,1.8,0.15,2.69
			C288.14-40.72,287.5-40.21,286.87-39.69z"/>
		<path class="st0" d="M376.78-50.71c0.66-0.06,1.31-0.12,1.97-0.18c-0.15,1.3-0.33,2.55-1.97,1.06
			C376.78-50.12,376.78-50.42,376.78-50.71z"/>
		<path class="st1" d="M376.78-50.71c0,0.29,0,0.59,0,0.88c-0.53-0.06-1.05-0.11-1.58-0.17C375.73-50.24,376.25-50.48,376.78-50.71z
			"/>
		<path class="st5" d="M422.1,148.42c0.75,3.37,0.98,6.74-0.13,10.1c-2.32,4.07-0.44,8.47-1.01,12.68
			c-4.13,3.14-8.7,4.27-13.95,4.09c-9.29-0.33-18.61-0.09-27.91-0.09c-12.19,0-12.19-0.01-12.3,11.94c0,0.17,0.02,0.33,0.01,0.5
			c-0.07,1.42,0.48,3.22-1.77,3.44c-2.04,0.19-2.85-1.04-3.35-2.9c-0.83-3.1-1.04-6.22-0.83-9.37c0.16-2.44-0.54-3.9-3.29-3.58
			c-1.9,0.09-3.8,0.18-5.69,0.27c-23.03-0.01-46.06-0.01-69.09-0.02c-0.35-0.1-0.7-0.2-1.06-0.3c-11.63,0-23.27,0-34.9,0
			c-43.79,0.03-87.58,0.06-131.37,0.09c-1.16,0-2.33,0.04-3.49,0.07c-5.67-3.53-7.87-8.62-7.21-15.22c0.3-2.97,0.27-6.01-0.01-8.98
			c-0.43-4.53,1.16-6.08,5.88-6.04c23.64,0.22,47.28,0.1,70.92,0.09c78.75-0.02,157.49-0.05,236.24-0.07
			C420.1,145.06,421.88,145.72,422.1,148.42z M255.69,159.39c-0.01,5.3,2.99,8.52,8.01,8.59c4.91,0.07,8.85-3.79,8.91-8.74
			c0.06-5-3.2-8.16-8.42-8.16C258.19,151.07,255.71,153.5,255.69,159.39z"/>
		<path class="st12" d="M417.78,145.1c-78.75,0.02-157.49,0.05-236.24,0.07c-23.64,0.01-47.28,0.13-70.92-0.09
			c-4.71-0.04-6.31,1.51-5.88,6.04c0.28,2.97,0.31,6.01,0.01,8.98c-0.66,6.6,1.54,11.69,7.21,15.22c-0.04,3.81-0.18,7.61-0.1,11.42
			c0.05,2.59-0.71,4.53-3.23,5.53c-0.25,0.19-0.5,0.38-0.76,0.58c-0.87-1.17-2.13-0.68-3.22-0.68c-13.95-0.02-27.91,0.01-41.86,0.02
			c-1.45-1.01-3.15-1.88-2.56-4.15c1.21-2.61,1.59-5.34,1.58-8.22c-0.07-16.16-0.02-32.32-0.05-48.48c-0.02-9.2-0.05-9.2,9.5-9.2
			c10.49,0,20.99,0,31.48,0c4.62,0.69,4.05-2.5,4.05-5.35c-0.01-46.54-0.01-93.07-0.01-139.61c0-4.32,0.04-8.64,0.06-12.96
			c2.17,0.17,3.81-3.75,6.18-1.04c2.17,2.48,2.45,5.26,0.38,8.22c-0.67,0.96-0.52,2.54-0.61,3.85c-1.73,25.58-0.81,51.2-0.99,76.8
			c-0.05,7.3-1.6,14.51-1.06,21.85c0.21,2.81-0.11,5.64,1.46,8.22c0.81,1.33,1.03,3.08,0.26,4.33c-3.72,6.11-1.39,12.48-1.26,18.8
			c0.09,4.27-0.17,8.45,1.42,12.55c0.34,0.89-0.52,2.2-0.66,3.34c-0.35,2.89-6.88,6.81,1.32,8.34c1.53,10.5,9.66,8.42,16.55,8.67
			c36.58,1.35,73.17,0.88,109.77,1.04c8.98,0.04,17.66-2.96,26.72-2.07c40.48,3.97,81.08,1.22,121.62,2.04
			c5.65,0.12,11.17-1.42,16.86-1.14c3.25,0.16,5.48-2.38,7.2-4.82c1.64-2.32,0.33-3.67-2.2-4.06c0.01-1.33,0.01-2.66,0.02-3.99
			c3.5-0.28,2.95-3.49,3.95-5.55c0.44-0.91,0.72-2.06,1.87-1.95c1.35,0.13,1.33,1.52,1.06,2.34c-1.91,5.8-0.8,11.39,1.12,16.89
			C418.81,139.7,418.22,142.37,417.78,145.1z"/>
		<path class="st12" d="M246.83,175.16c11.63,0,23.27,0,34.9,0c0.02,0.67,0.05,1.34,0.07,2.01c0.05,0.34,0.1,0.69,0.15,1.03
			c0.23,0.52,0.46,1.04,0.69,1.56c0.12,0.48,0.23,0.96,0.35,1.44c0.23,0.43,0.46,0.86,0.68,1.3c0.2,1.5,0.89,2.72,2.05,3.69
			c0.32,0.43,0.64,0.86,0.96,1.29c0.91,1.63,2.16,2.91,3.81,3.8c0.06,0.3,0.17,0.58,0.34,0.84c-0.92,1.36-2.34,1.03-3.63,1.03
			c-16.97-0.02-33.93-0.06-50.9-0.09C241.82,188.28,246.4,182.94,246.83,175.16z"/>
		<path class="st12" d="M379.68,221.4c-0.32,0.32-0.63,0.64-0.95,0.97c-0.65-0.04-1.31-0.09-1.96-0.13
			c-1.27-1.6-3.06-1.04-4.65-1.03c-30.8,0.05-61.6,0.14-92.4,0.22c-0.95,0.01-1.9,0.01-2.85,0.02c-2.05,0-4.1,0-6.15,0.01
			c-2.95,0.01-5.9,0.02-8.84,0.02c-1.39-0.01-2.77-0.02-4.16-0.02c-2.95-0.01-5.9-0.02-8.85-0.03c-4.05,0-8.09,0.01-12.14,0.01
			c-5.28,0.01-10.56,0.01-15.85,0.02c-1.05-0.01-2.11-0.01-3.16-0.02c-3.62,0-7.23,0-10.85,0c-1.38-0.01-2.76-0.02-4.15-0.02
			c-3.28,0.01-6.57,0.02-9.85,0.03c-1.05-0.01-2.1-0.01-3.16-0.01c-3.28,0.01-6.56,0.02-9.84,0.03c-1.39-0.01-2.77-0.01-4.16-0.01
			c-3.28,0-6.57,0-9.85-0.01c-1.38,0-2.77-0.01-4.15-0.01c-1.62,0-3.23,0.01-4.85,0.02c-6.75-0.11-13.49-0.22-20.24-0.33
			c6.34-3.82,13.41-5.99,20.19-8.8c0.61,0.71,0.82,0.24,1-0.34c0,0,0.3,0.04,0.3,0.04c0.56-0.3,1.13-0.61,1.69-0.91
			c0,0,0.37-0.08,0.37-0.08c2.6,0.09,5.19,0.17,7.79,0.25c-2.93,4.56-9.07,3.64-13.86,7.91c2.93,0,4.54,0,6.14,0
			c11.16,0,22.32-0.11,33.47,0.04c5.3,0.07,10.55,0.41,15.09-3.07c0.27,0.97-1.27,2.22,0.43,2.98c6.16,2.75,14.3-2.83,14.42-9.89
			c1.42,0.05,2.98-0.53,4.13,0.85c-1.13,1.63-2.27,3.25-3.38,4.9c-0.77,1.15-2.92,1.88-1.97,3.53c0.81,1.41,2.75,0.64,4.18,0.65
			c8.81,0.06,17.62,0.04,26.43,0.04c5.97,0,6.59-0.77,5.34-6.64c-0.17-0.8-0.39-1.6-0.58-2.4c0.93-1.27,1.92-1.29,2.98-0.15
			c0.03,2.16,0.2,4.34,0.05,6.49c-0.21,2.9,1.09,3.98,3.82,3.62c2.41-0.31,5.75,1.29,7.04-0.94c1.36-2.36-1.49-4.73-2.48-7.09
			c-0.32-0.75-0.91-1.38-1.37-2.07c1.33-1.24,2.65-1.26,3.96,0.02c0.72,8.73,3.6,11.92,11.21,9.74c3.63-1.04,6.71-0.2,9.98-0.65
			c2.01-0.27,4.88,1.58,5.82-1.97l0.03-0.03c4.11,2.11,8.12,4.89,13.02,2.06c16.66,0,33.32,0.04,49.98-0.06
			c1.66-0.01,4.25,1.39,4.79-1.87c1.37,0,2.73-0.01,4.1-0.02c0.3,1.96,1.74,1.94,3.21,1.86c0.62,0.04,1.24,0.08,1.86,0.12
			C377.06,219.96,378.37,220.68,379.68,221.4z"/>
		<path class="st5" d="M236.3,193.06c16.97,0.03,33.93,0.07,50.9,0.09c1.29,0,2.71,0.33,3.63-1.03c0.69,0.12,1.39,0.24,2.08,0.37
			c0.17,0.32,0.43,0.43,0.77,0.32c1.68,0.58,3.39,0.4,5.1,0.19c5.34,0.66,6.02,2.04,4.02,8.22c-2.01,0.07-4.02,0.15-6.03,0.22
			c-21.99-0.01-43.98-0.01-65.97-0.02c-1.34-0.01-2.69-0.02-4.03-0.02c-0.51-0.16-1.01-0.32-1.52-0.47c-0.59-7.6-0.59-7.6,7.07-7.75
			C233.65,193.15,234.98,193.1,236.3,193.06z"/>
		<path class="st6" d="M370.68,217.26c-1.37,0-2.73,0.01-4.09,0.01c-0.26-0.01-0.52-0.03-0.78-0.06c-0.82-1.94-2.4-2.22-4.24-1.93
			c-0.92-0.04-1.85-0.09-2.77-0.13c-2.06-2.61-4.18-5.08-8-3.01c-2.03-0.65-4.02-1.72-6.09-1.88c-14.65-1.16-29.32-1.44-44.01-0.71
			c-2.33,0.19-4.67,0.37-7,0.56c-1.29-0.5-2.58-1.72-3.87-0.01c-2.39-0.01-4.79-0.01-7.18-0.02c-1.27-0.5-2.53-1.66-3.81-0.02
			c-2.36,0-4.71,0-7.07,0c-1.31-1.28-2.63-1.26-3.96-0.02c-2.35-0.01-4.7-0.01-7.05-0.02c-1.05-1.14-2.05-1.12-2.98,0.15
			c-2.99,0-5.99,0.01-8.98,0.01c-0.65-1.02-1.32-1.07-2.01-0.03c-3,0-6.01-0.01-9.01-0.01c-0.5-0.89-1.32-0.97-2.21-0.88
			c-2.61,0.13-5.11,1.37-7.8,0.83c-1.15-1.38-2.7-0.8-4.12-0.85c-1.58-0.01-3.17-0.01-4.75-0.02c-2.08,0-4.16,0-6.23,0
			c-14.9,0.71-29.94-1.72-44.7,2.05c-2.6-0.08-5.19-0.17-7.79-0.25c4.12-2.91,8.78-3.63,13.71-3.62c33.97,0.03,67.95,0,101.92-0.03
			c1.99,0,3.98-0.15,5.97-0.23c2.67,0,5.34,0,8.01-0.01c3.33,0,6.66,0.01,9.99,0.01c1,0,2,0,3,0c1.67,0.01,3.33,0.03,5,0.04
			c1.33-0.01,2.67-0.01,4-0.02c7,0.01,14,0.02,21,0.03c1.33-0.01,2.67-0.01,4-0.02c11.58-1.52,21.51,3.35,31.47,8.12
			c0.5,0.26,1.01,0.52,1.51,0.78c0.13,0.24,0.32,0.31,0.57,0.22c0.13,0.29,0.29,0.57,0.48,0.83L370.68,217.26z"/>
		<path class="st6" d="M159.8,211.09c-0.56,0.3-1.12,0.61-1.69,0.91C158.67,211.7,159.24,211.4,159.8,211.09z"/>
		<path class="st6" d="M157.81,211.97c-0.18,0.58-0.39,1.05-1,0.34C157.14,212.19,157.47,212.08,157.81,211.97z"/>
		<path class="st12" d="M357.57,175.21c2.75-0.32,3.45,1.14,3.29,3.58c-0.21,3.15,0,6.27,0.83,9.37c0.5,1.85,1.31,3.09,3.35,2.9
			c2.25-0.21,1.7-2.02,1.77-3.44c0.01-0.17-0.01-0.33-0.01-0.5c0.11-11.94,0.11-11.94,12.3-11.94c9.31,0,18.62-0.24,27.91,0.09
			c5.25,0.19,9.82-0.94,13.95-4.09c14.88,1.36,29.8,0.9,44.71,0.97c1.17,0.01,2.35-0.05,3.14,1.07c-1.86,6.23,0.68,12.69-1,18.92
			c-1.36,0.15-2.87-0.43-3.98,0.87c-1.02,0-2.05,0-3.07,0c-8.64-1.43-17.29-1.44-25.93,0c-5.35,0-10.71,0-16.06,0
			c-5.65-1.43-11.29-1.43-16.94,0c-6.36,0-12.71,0-19.07,0c-3.98-1.37-7.96-1.4-11.94,0.02c-0.34,0.13-0.68,0.27-1.03,0.4
			c-1.33,0-2.67,0-4,0c-6.79-0.46-7.64-1.31-8.24-8.34c-0.17-1.98-0.3-3.96-0.45-5.94C357.25,177.85,357.41,176.53,357.57,175.21z"
			/>
		<path class="st1" d="M298.78,193c-1.71,0.21-3.42,0.39-5.1-0.19c0.15-2.11,0.9-4.28,3.2-4.15
			C299.36,188.8,298.62,191.31,298.78,193z"/>
		<path class="st1" d="M357.57,175.21c-0.16,1.32-0.32,2.64-0.47,3.96c-1.74-1.23-3.48-2.46-5.22-3.7
			C353.77,175.39,355.67,175.3,357.57,175.21z"/>
		<path class="st6" d="M370.81,193.05c3.98-1.42,7.96-1.39,11.94-0.02c-3.32,0.14-6.64,0.28-9.96,0.41
			C372.12,193.31,371.47,193.18,370.81,193.05z"/>
		<path class="st1" d="M336.78,207.17c-1.33,0.01-2.67,0.01-4,0.02c0.01-1.54,0.06-3.09,2.23-2.92
			C336.89,204.4,336.71,205.88,336.78,207.17z"/>
		<path class="st1" d="M311.78,207.16c-1.33,0.01-2.67,0.01-4,0.02c0.11-1.09-0.28-2.59,1.3-2.79
			C310.99,204.15,311.62,205.51,311.78,207.16z"/>
		<path class="st1" d="M365.78,193.45c1.33,0,2.67,0,4,0C368.45,196.13,367.12,196.14,365.78,193.45z"/>
		<path class="st8" d="M302.76,202.16c-1.99-0.26-4.12,0.61-5.99-0.72c2.01-0.07,4.02-0.15,6.03-0.22
			C302.79,201.53,302.78,201.84,302.76,202.16z"/>
		<path class="st6" d="M373.9,219.12c-1.48,0.08-2.92,0.1-3.21-1.86c0,0,0.13-0.13,0.13-0.13c0.32-0.02,0.63-0.06,0.95-0.11
			c0.18,0.24,0.42,0.32,0.72,0.24c0.43,0.32,0.86,0.65,1.29,0.97C373.77,218.54,373.82,218.83,373.9,219.12z"/>
		<path class="st1" d="M281.8,177.16c-0.02-0.67-0.05-1.34-0.07-2.01c0.35,0.1,0.7,0.2,1.06,0.3
			C282.46,176.03,282.13,176.59,281.8,177.16z"/>
		<path class="st1" d="M292.91,192.48c-0.69-0.12-1.39-0.24-2.08-0.37c-0.17-0.26-0.29-0.54-0.34-0.84
			C291.54,191.19,292.43,191.42,292.91,192.48z"/>
		<path class="st1" d="M371.76,217.02c-0.31,0.05-0.63,0.08-0.95,0.11c-0.19-0.26-0.35-0.53-0.48-0.83
			C370.81,216.54,371.28,216.78,371.76,217.02z"/>
		<path class="st1" d="M286.68,187.48c-0.32-0.43-0.64-0.86-0.96-1.29C286.04,186.61,286.36,187.04,286.68,187.48z"/>
		<path class="st1" d="M282.65,179.76c-0.23-0.52-0.46-1.04-0.69-1.56C282.18,178.72,282.41,179.24,282.65,179.76z"/>
		<path class="st1" d="M283.67,182.5c-0.23-0.43-0.46-0.86-0.68-1.3C283.22,181.63,283.45,182.06,283.67,182.5z"/>
		<path class="st1" d="M369.77,216.08c-0.5-0.26-1.01-0.52-1.51-0.78C368.76,215.56,369.26,215.82,369.77,216.08z"/>
		<path class="st1" d="M373.76,218.23c-0.43-0.32-0.86-0.65-1.29-0.97C372.9,217.58,373.33,217.91,373.76,218.23z"/>
		<path class="st1" d="M164.92-72.5c0.03,4.46-3.4,8.24-7.62,8.38c-4.29,0.14-8.42-3.9-8.41-8.24c0.01-4.18,3.87-8.04,8.02-8.02
			C161.39-80.37,164.89-76.92,164.92-72.5z"/>
		<path class="st2" d="M136.78-86.84c0.1-1.31-0.13-2.77,0.38-3.91c1.06-2.38,2.99-3.95,5.34-1.7c2,1.92,3.3,3.63,5.75,0.48
			c1.06-1.36,1.99,0.14,2.27,1.31c0.38,1.59-0.23,2.92-1.48,3.94c-1.57,1.28-3.65,1.88-4.93,0.33c-2.49-3-4.83-1.41-7.32-0.44
			C136.79-86.82,136.78-86.84,136.78-86.84z"/>
		<path class="st2" d="M172.93-68.83c0.78,0.15,1.58,0.3,1.69,1.29c0.14,1.27-0.74,1.56-1.73,1.71
			C172.9-66.83,172.92-67.83,172.93-68.83z"/>
		<path class="st1" d="M177.34-59.14c0.6,1.82-0.4,2.23-1.91,2.19C175.74-57.97,175.99-59.03,177.34-59.14z"/>
		<path class="st9" d="M279.71,221.42c30.8-0.08,61.6-0.17,92.4-0.22c1.59,0,3.38-0.56,4.65,1.03c-1.51,1.55-3.45,0.91-5.2,0.91
			c-28.91,0.04-57.83,0.04-86.74-0.03C283.04,223.12,280.67,224.19,279.71,221.42z"/>
		<path class="st9" d="M236.71,221.43c4.05,0,8.09-0.01,12.14-0.01C245.78,223.93,239.81,223.93,236.71,221.43z"/>
		<path class="st9" d="M270.71,221.45c2.05,0,4.1-0.01,6.15-0.01C274.81,224.16,272.76,224.15,270.71,221.45z"/>
		<path class="st9" d="M161.71,221.42c1.38,0,2.77,0,4.15,0.01C164.47,224.06,163.09,224.06,161.71,221.42z"/>
		<path class="st9" d="M175.71,221.44c1.38,0,2.77,0.01,4.16,0.01C178.47,224.04,177.08,224.04,175.71,221.44z"/>
		<path class="st9" d="M202.71,221.41c1.38,0.01,2.76,0.01,4.15,0.02C205.46,224.05,204.08,224.07,202.71,221.41z"/>
		<path class="st9" d="M257.7,221.45c1.39,0.01,2.77,0.01,4.16,0.02C260.46,224.02,259.07,224.04,257.7,221.45z"/>
		<path class="st9" d="M217.7,221.43c1.05,0.01,2.11,0.01,3.16,0.02C219.8,223.83,218.74,223.81,217.7,221.43z"/>
		<path class="st9" d="M189.7,221.43c1.05,0,2.1,0.01,3.16,0.01C191.8,223.82,190.75,223.82,189.7,221.43z"/>
		<path class="st7" d="M59.68,137.07c0.51,12.73,0.46,25.45,0.01,38.18c-1.89-0.21-3.43,0.42-5.12,1.36
			c-10.31,5.73-25.96,0.68-31.28-8.17c-3.33-5.54-3.43-19.8,0.5-24.74c6.07-7.62,13.5-11.78,23.77-10.33
			C51.91,134.01,55.08,137.8,59.68,137.07z M49.61,158.14c0.33,0,0.69,0.08,0.99-0.01c2.55-0.81,7.33,1.87,7.34-2.17
			c0.01-3.26-4.75-1.82-7.22-1.63c-4.95,0.38-7.83-1.52-9.43-6.05c-0.82-2.33-1.87-4.6-3.04-6.77c-0.69-1.28-1.85-2.79-3.53-1.89
			c-1.61,0.86-1.12,2.66-0.51,3.99c1.02,2.25,2.47,4.31,3.44,6.57C41.1,158.16,41.06,158.18,49.61,158.14z"/>
		<path class="st2" d="M170.15-140.2c-0.15,0.67-0.3,1.35-0.45,2.02c-0.33,0.01-0.67,0.07-0.98,0.01c-1.82-0.36-4.27,0.3-4.77-2.42
			c-0.31-1.69,0.68-2.98,2.35-3.21C168.88-144.17,169.57-142.17,170.15-140.2z"/>
		<path class="st0" d="M62.79,192.19c13.95-0.01,27.91-0.04,41.86-0.02c1.09,0,2.35-0.5,3.22,0.68c-14.3,0.1-28.59,0.22-42.89,0.27
			C64.25,193.11,63.52,192.51,62.79,192.19z"/>
		<path class="st5" d="M467.8,192.16c1.69-6.24-0.86-12.7,1-18.92c8.61,0.04,17.22,0.09,25.83,0.13c1.8,6.24,1.76,12.49-0.02,18.73
			C485.68,192.11,476.74,192.14,467.8,192.16z"/>
		<path class="st12" d="M494.61,192.09c1.78-6.24,1.82-12.49,0.02-18.73c4.49-1.99,6.04-1.31,6.1,3.01
			c0.07,5.22,2.18,10.47-0.07,15.67C498.65,192.06,496.63,192.08,494.61,192.09z"/>
		<path class="st6" d="M434.81,193.03c8.64-1.44,17.29-1.44,25.93,0C452.1,193.03,443.46,193.03,434.81,193.03z"/>
		<path class="st6" d="M401.81,193.04c5.65-1.43,11.29-1.43,16.94,0C413.1,193.04,407.46,193.04,401.81,193.04z"/>
		<path class="st11" d="M409.81,125.17c-0.01,1.33-0.01,2.66-0.02,3.99c-2.2,5.79-7.51,4.85-11.82,4.89
			c-26.98,0.21-53.96,0.15-80.95,0.08c-9.13-0.02-18.27-0.52-27.36-0.63c-8.9-0.11-17.89,0.64-26.86,0.65
			c-45.39,0.01-90.78,0.01-136.17,0.01c-8.61,0-9.87-1.23-9.87-9.71c0-48.97,0-97.94,0-146.91c0-7.31,0.72-8.16,8.3-8.33
			c7.32-0.17,14.66-0.04,21.99-0.04c25.82,0,51.63,0,77.45-0.01c3.64,0,7.22,0.23,10.44,2.22c-0.3,2.22-0.74,4.48,1.83,5.79
			c0.07,1.1,0.14,2.19,0.2,3.28c-0.78,0.29-1.57,0.59-2.35,0.88c-28.78,0-57.55,0-86.33,0c-4.82,0-9.65,0.08-14.47-0.01
			c-4.44-0.09-6.39,1.97-6.2,6.38c0.17,3.82,0.15,7.64,0.21,11.46c-0.06,2.33-0.18,4.66-0.18,6.98c-0.01,35.49,0,70.98-0.01,106.47
			c0,9.52,0.03,9.58,9.36,9.58c85.14,0,170.28-0.01,255.42-0.02c8.51,0,9.11-0.6,9.11-8.97c0-29.49,0.02-58.98-0.01-88.47
			c-0.01-8.49-0.15-16.98-0.22-25.47c0.09-2.49,0.25-4.98,0.26-7.47c0.06-10.02-0.44-10.47-10.29-10.48
			c-34.82-0.03-69.65-0.09-104.47-0.13c0-0.35-0.01-0.7-0.01-1.05c3.71-1.39,3.79-3.79,1.86-6.74c0.16-1.5,0.21-2.92,2.27-3.29
			c2.28-0.42,4.5-0.97,6.87-0.96c33.98,0.05,67.96,0.03,101.94,0.05c1.65,0,3.31,0.16,4.93,0.46c3.61,0.67,5.27,2.67,5.21,6.6
			c-0.19,12.16-0.07,24.32-0.07,36.48C409.79,50.21,409.8,87.69,409.81,125.17z"/>
		<path class="st7" d="M257.57-37.48c-5.41-0.1-10.82-0.17-16.22-0.33c-1.49-0.04-3.5,0.7-3.76-1.89c2.83-0.02,5.67-0.21,8.49-0.03
			c3.31,0.21,4.03-1.46,3.67-4.28c-1.43-11.36-3.13-22.62-7.83-33.25c-1.93-4.35-4.57-8.05-7.6-11.59c-0.6-0.7-1.73-1.4-0.77-2.47
			c0.64-0.72,1.54-0.25,2.31,0.08c7.85,3.39,15.86,3.83,24.34,2.65c6.64-0.92,13.42,1.78,20.28-0.06c2.73-0.73,5.45-1.35,8.04-2.49
			c0.91-0.4,1.92-0.97,2.74-0.04c0.81,0.93,0.28,1.92-0.43,2.66c-10.98,11.34-12.6,26.34-15.79,40.67c-1.25,5.63,1.19,8.1,6.92,8.1
			c1.67,0,3.33,0.01,5,0.01c-0.11,0.64-0.22,1.28-0.33,1.91c-0.63,0.1-1.26,0.2-1.89,0.29c-6.92-0.41-13.83-0.38-20.74,0.05
			C261.84-37.48,259.71-37.48,257.57-37.48z M242.01-84.87c0.24,0.67,0.39,1.3,0.67,1.87c5.02,10.38,8.21,21.22,9.19,32.77
			c0.89,10.46,1.18,10.49,11.88,10.46c0.83,0,1.66-0.04,2.49,0c3.66,0.15,5.15-1.49,5.68-5.24c1.7-12.1,3.13-24.34,9.19-35.29
			c2.11-3.81,1.31-4.71-2.89-4.64C266.3-84.74,254.39-84.87,242.01-84.87z"/>
		<path class="st5" d="M288.63-26.61c1.93,2.95,1.85,5.35-1.86,6.74c-11.34,1.85-22.7,3.56-34.01,5.61
			c-4.46,0.81-9.15,0.54-13.36,2.64c-3.96-0.75-5.11-3.4-4.78-7.05c0.78-0.29,1.57-0.59,2.35-0.88c15.05-1.31,29.8-4.59,44.71-6.8
			C284.03-26.7,286.3-26.78,288.63-26.61z"/>
		<path class="st5" d="M284.73-37.54c0.63-0.1,1.26-0.2,1.89-0.29c1.97,0.88,3.35,2.22,3.02,4.55c-0.37,2.63-2.87,2.75-4.59,3.05
			c-11.18,1.93-22.4,3.64-33.62,5.36c-4.87,0.75-9.77,1.36-14.65,2.03c-2.57-1.31-2.13-3.57-1.83-5.79
			c1.28-0.43,2.55-0.86,3.83-1.29c6.68-1.34,13.61-1.38,20.03-4c6.29-0.68,12.58-1.35,18.87-2.03
			C280.18-35.82,282.45-36.7,284.73-37.54z"/>
		<path class="st2" d="M341.66-168.76c0.06,2.2-1.13,2.99-2.79,2.86c-3.36-0.26-6.05-1.78-6.89-5.24c-0.45-1.85,1.06-2.7,2.72-2.58
			C338.08-173.47,340.53-171.82,341.66-168.76z"/>
		<path class="st2" d="M327.71-183.85c2.14,0.66,4.83,1.1,5.16,4.21c0.2,1.91-1.3,2.7-2.96,2.36c-2.49-0.52-4.89-1.58-5.2-4.53
			C324.53-183.52,325.99-183.89,327.71-183.85z"/>
		<path class="st2" d="M349.47-164.92c-2.16-0.79-4.26-2.04-4.4-4.89c-0.06-1.32,1.15-2.11,2.39-1.76c2.37,0.68,4.82,1.63,5,4.6
			C352.55-165.38,351.26-164.8,349.47-164.92z"/>
		<path class="st2" d="M355.47-174.58c0.14,1.32-0.41,2.33-1.49,2.25c-2.47-0.19-4.34-1.53-4.95-4.02
			c-0.25-1.04,0.58-1.98,1.75-1.84C353.06-177.91,354.64-176.58,355.47-174.58z"/>
		<path class="st2" d="M340.56-187.79c-1.98-0.24-3.73-1.04-4.43-3.16c-0.4-1.22,0.36-2,1.52-1.79c2.08,0.37,4.32,0.85,4.89,3.34
			C342.84-188.13,341.73-187.82,340.56-187.79z"/>
		<path class="st2" d="M332.25-159.98c-3.23,0.34-5.3-0.75-5.32-4.34C328.85-163.05,331.09-162.18,332.25-159.98z"/>
		<path class="st3" d="M374.98-56.83c-4.85-0.11-9.46-4.83-9.15-9.36c0.34-4.94,4.75-8.81,9.86-8.65c5.09,0.16,9.32,4.53,9.04,9.36
			C384.44-60.47,380.2-56.71,374.98-56.83z M375.58-70.16c-2.74-0.1-4.54,1.18-4.69,3.91c-0.16,3.05,1.51,5.11,4.64,5.19
			c2.69,0.07,4.19-1.69,4.36-4.35C380.08-68.39,378.62-70.03,375.58-70.16z"/>
		<path class="st8" d="M385.8-76.82c-1.04-2.09-0.17-2.77,1.94-3.07c1.88-0.27,3.82-1.76,5.5-0.02c0.78,0.8,0.07,1.87-1.16,2.08
			c-2.1,0.35-4.21,0.65-6.31,0.98C385.77-76.85,385.8-76.82,385.8-76.82z"/>
		<path class="st8" d="M366.76-56.8c0.42,0.11,0.84,0.22,1.26,0.34c-0.74,0.91-0.87-0.03-1.2-0.39L366.76-56.8z"/>
		<path class="st8" d="M366.82-56.85c-0.34-0.34-0.68-0.68-1.01-1.01c0,0-0.05,0.06-0.05,0.06c0.34,0.34,0.68,0.67,1.01,1.01
			C366.76-56.8,366.82-56.85,366.82-56.85z"/>
		<path class="st2" d="M383.79-113.21c-0.39,3.16-1.75,5.28-4.91,5.41c-3.12,0.13-5.03-1.53-5.09-4.72
			c-0.06-3.08,1.65-5.07,4.71-5.24C381.59-117.92,383.23-115.97,383.79-113.21z"/>
		<path class="st2" d="M339.4-78.84c-0.5,2.38-1.48,4.11-3.93,4c-2.09-0.09-3.46-1.54-3.49-3.53c-0.03-2.27,1.36-3.71,3.78-3.65
			C337.93-81.98,338.92-80.54,339.4-78.84z"/>
		<path class="st7" d="M235.63-42.79c0.04-0.66,0.08-1.32,0.12-1.98c1.69,1.3,2.09,3.09,1.91,5.09c-0.65-0.54-1.3-1.07-1.95-1.61
			C235.68-41.79,235.66-42.29,235.63-42.79z"/>
		<path class="st7" d="M235.55-45.75c-0.27-0.63-0.53-1.26-0.8-1.89C236.77-47.76,235.27-46.38,235.55-45.75z"/>
		<path class="st12" d="M258.81-33.91c-6.42,2.62-13.36,2.66-20.03,4c1.06-1.85-3.24-4.64,1.03-5.94
			C246.17-35.4,252.74-37.14,258.81-33.91z"/>
		<path class="st11" d="M258.81-33.91c-6.07-3.23-12.65-1.49-19-1.93c3.69-2.09,7.69-0.49,11.51-0.99c2.08-0.27,4.27,0.6,6.25-0.64
			c2.14,0,4.27-0.01,6.41-0.01c4.4,1.97,9.34-0.83,13.7,1.54C271.39-35.27,265.1-34.59,258.81-33.91z"/>
		<path class="st2" d="M96.81,120.66c-1.11,0.05-2.23,0.1-3.33,0.15c-0.49-0.57-0.97-0.52-1.46,0.01c-0.69-0.07-1.38-0.14-2.07-0.22
			c-0.78-12.46-1.56-24.91-2.35-37.37c1.92-0.56,2.09-2.75,3.46-3.77c1.06-0.79,1.66-3.23,3.72-1.34c-0.59,1.86-3.18,2.66-2.78,5.02
			c1.8,10.66,0.45,21.4,0.74,32.1c0.08,3.07,1.09,4.25,4.03,3.93C96.78,119.67,96.79,120.16,96.81,120.66z"/>
		<path class="st4" d="M202.87-67.66c0.66-0.34,1.32-0.67,1.97-1.01c1.45-0.1,2.49-0.88,3.3-2.02c0.22,0.08,0.44,0.06,0.65-0.06
			c1.23,0.29,2.77-1.62,3.58-0.03c0.82,1.6-1.14,2.2-2.16,2.81c-6.85,4.08-13.74,8.08-20.66,12.04c-1.26,0.72-2.63,1.57-4.25,0.49
			c-0.05-2.64,3.49-2.44,3.82-4.75c0.21-0.11,0.41-0.24,0.6-0.4c1.85,0.1,3.33-0.57,4.37-2.13c2.68-0.54,4.69-2.29,6.8-3.84
			C201.55-66.92,202.21-67.29,202.87-67.66z"/>
		<path class="st7" d="M96.76,119.18c-2.94,0.32-3.95-0.86-4.03-3.93c-0.29-10.7,1.05-21.44-0.74-32.1
			c-0.4-2.36,2.19-3.16,2.78-5.02c1.04,0.08,2.09,0.16,3.13,0.23c-0.04,9.65-0.08,19.3-0.1,28.95c0,1.6-0.44,3.5,2,3.88
			C98.85,113.88,100.15,117.42,96.76,119.18z"/>
		<path class="st4" d="M99.8,111.2c-2.44-0.38-2-2.28-2-3.88c0.01-9.65,0.06-19.3,0.1-28.95c3.36-0.79,2.95,1.68,3.15,3.63
			c-0.1,7.05-1.02,14.13,0.5,21.14C101.09,105.85,101.03,108.65,99.8,111.2z"/>
		<path class="st7" d="M101.55,103.14c-1.52-7.01-0.6-14.09-0.5-21.14c0.29,0.16,0.79,0.29,0.82,0.49
			C102.99,89.39,103.73,96.29,101.55,103.14z"/>
		<path class="st1" d="M81.22,77.96c0.69-0.84,1.59-0.8,2.53-0.62C83.06,78.19,82.14,78.1,81.22,77.96z"/>
		<path class="st10" d="M92.01,120.82c0.48-0.53,0.97-0.58,1.46-0.01C92.98,120.81,92.5,120.81,92.01,120.82z"/>
		<path class="st2" d="M194.09-62.71c-1.04,1.56-2.52,2.23-4.37,2.13C190.48-62.71,192.14-63,194.09-62.71z"/>
		<path class="st2" d="M208.14-70.69c-0.81,1.14-1.85,1.92-3.3,2.02C204.89-71.06,206.53-70.85,208.14-70.69z"/>
		<path class="st2" d="M202.87-67.66c-0.66,0.37-1.32,0.74-1.97,1.11C201.01-67.87,200.93-69.54,202.87-67.66z"/>
		<path class="st2" d="M333.82-143.75c-0.46,0.74-1.19,0.94-2,0.97C331.99-144.12,332.2-145.38,333.82-143.75z"/>
		<path class="st11" d="M255.69,159.39c0.01-5.89,2.49-8.32,8.5-8.31c5.23,0,8.48,3.16,8.42,8.16c-0.06,4.95-4,8.82-8.91,8.74
			C258.68,167.91,255.68,164.69,255.69,159.39z"/>
		<path class="st9" d="M358.79,215.16c0.92,0.04,1.85,0.09,2.78,0.13c0.65,2.33,2.6,1.78,4.24,1.93c0.26,0.03,0.52,0.05,0.78,0.06
			c-0.54,3.26-3.13,1.86-4.79,1.87c-16.66,0.11-33.32,0.06-49.98,0.06c-1.44-2.51-4.11-3.03-6.48-4.01
			c-2.57-1.07-4.47-2.63-4.65-5.65c14.69-0.73,29.36-0.45,44.01,0.71c2.07,0.16,4.06,1.23,6.09,1.88
			C353.31,213.53,355.76,215.11,358.79,215.16z"/>
		<path class="st9" d="M167.96,211.27c14.76-3.77,29.8-1.34,44.7-2.05c0.9,3.55-2.89,4.48-3.9,6.96l0.04-0.03
			c-4.53,3.48-9.78,3.14-15.09,3.07c-11.15-0.15-22.31-0.04-33.47-0.04c-1.61,0-3.21,0-6.14,0
			C158.89,214.91,165.03,215.83,167.96,211.27z"/>
		<path class="st5" d="M227.77,210.09c2.69,0.54,5.18-0.7,7.8-0.83c0.91,2.35-1.7,4.14-1.26,6.66c3.46-0.83,3.43-3.32,3.46-5.78
			c3,0,6.01,0.01,9.01,0.01c0.75,1.89-1.79,5.33,0.31,5.43c3.01,0.14,1.14-3.48,1.7-5.4c2.99,0,5.99-0.01,8.98-0.01
			c0.2,0.8,0.41,1.6,0.58,2.4c1.25,5.87,0.63,6.64-5.34,6.64c-8.81,0-17.62,0.02-26.43-0.04c-1.43-0.01-3.36,0.76-4.18-0.65
			c-0.95-1.66,1.2-2.39,1.97-3.53C225.5,213.34,226.64,211.72,227.77,210.09z"/>
		<path class="st5" d="M300.69,209.55c0.18,3.02,2.08,4.57,4.65,5.65c2.37,0.99,5.05,1.51,6.48,4.01c-4.9,2.83-8.91,0.05-13.02-2.06
			c-0.26-2.01-1.16-3.11-3.53-2.67c0.76,1.82,1.88,2.6,3.49,2.7c-0.93,3.55-3.8,1.7-5.82,1.97c-3.28,0.45-6.36-0.39-9.98,0.65
			c-7.61,2.18-10.49-1.01-11.21-9.74c2.36,0,4.71,0,7.07,0c0.85,1.51,1.73,2.98,3.81,3.44c0-1.23,0-2.32,0-3.42
			c2.39,0.01,4.79,0.01,7.18,0.02c0.75,1.26,1.46,2.86,3.17,2.55c1.17-0.21,0.62-1.63,0.71-2.54
			C296.02,209.93,298.35,209.74,300.69,209.55z"/>
		<path class="st5" d="M260.75,210.02c2.35,0.01,4.7,0.01,7.05,0.02c0.46,0.68,1.06,1.32,1.37,2.07c1,2.36,3.84,4.73,2.48,7.09
			c-1.28,2.22-4.63,0.62-7.04,0.94c-2.73,0.36-4.02-0.72-3.82-3.62C260.95,214.36,260.78,212.19,260.75,210.02z"/>
		<path class="st9" d="M218.89,209.22c1.58,0.01,3.17,0.01,4.75,0.02c-0.12,7.05-8.26,12.64-14.42,9.89c-1.7-0.76-0.16-2-0.43-2.98
			c0,0-0.04,0.03-0.04,0.03C213.35,215.62,215.53,211.56,218.89,209.22z"/>
		<path class="st8" d="M230.8,201.42c-1.35,1.05-2.7,1.06-4.03-0.03C228.11,201.4,229.46,201.41,230.8,201.42z"/>
		<path class="st12" d="M218.89,209.22c-3.36,2.34-5.55,6.4-10.13,6.96c1.01-2.48,4.8-3.41,3.9-6.96
			C214.74,209.22,216.82,209.22,218.89,209.22z"/>
		<path class="st12" d="M358.79,215.16c-3.03-0.05-5.48-1.62-8-3.01C354.61,210.08,356.72,212.55,358.79,215.16z"/>
		<path class="st12" d="M237.77,210.14c-0.03,2.46,0,4.95-3.46,5.78c-0.44-2.52,2.16-4.32,1.26-6.66
			C236.45,209.17,237.28,209.26,237.77,210.14z"/>
		<path class="st12" d="M248.8,210.19c-0.55,1.92,1.31,5.54-1.7,5.4c-2.1-0.1,0.43-3.54-0.31-5.43
			C247.47,209.12,248.14,209.17,248.8,210.19z"/>
		<path class="st12" d="M282.63,210.09c0,1.1,0,2.19,0,3.42c-2.07-0.46-2.95-1.93-3.81-3.44
			C280.11,208.43,281.37,209.59,282.63,210.09z"/>
		<path class="st12" d="M293.69,210.11c-0.09,0.91,0.46,2.34-0.71,2.54c-1.71,0.3-2.42-1.29-3.17-2.55
			C291.11,208.4,292.4,209.61,293.69,210.11z"/>
		<path class="st0" d="M289.79,207.13c3.33-1.51,6.66-1.52,9.99,0.01C296.45,207.14,293.12,207.14,289.79,207.13z"/>
		<path class="st12" d="M365.8,217.22c-1.64-0.15-3.59,0.4-4.24-1.93C363.4,215,364.98,215.28,365.8,217.22z"/>
		<path class="st4" d="M49.61,158.15c-8.56,0.04-8.51,0.02-11.96-7.97c-0.98-2.26-2.42-4.32-3.44-6.57
			c-0.61-1.33-1.1-3.13,0.51-3.99c1.68-0.9,2.84,0.62,3.53,1.89c1.17,2.17,2.22,4.44,3.04,6.77c1.6,4.53,4.48,6.43,9.43,6.05
			c2.47-0.19,7.23-1.63,7.22,1.63c-0.01,4.04-4.79,1.37-7.34,2.17C50.3,158.23,49.94,158.14,49.61,158.15z"/>
		<path class="st8" d="M401.28-0.73c-36.78-0.04-73.55-0.1-110.33-0.09c-1.46,0-2.91,0.55-4.37,0.84c1.11-2.34-0.33-3.67-1.93-4.94
			c0.1-1.29,0.2-2.57,0.29-3.86c4.14-2.34,4.59-4.69,0.02-7.06c-0.56-1.7,0.81-2.22,1.81-2.97c34.82,0.05,69.65,0.1,104.47,0.13
			c9.85,0.01,10.35,0.46,10.29,10.48C401.53-5.72,401.37-3.23,401.28-0.73z M393.94-9.47c-0.11-1.82-0.87-3.23-2.9-3.29
			c-1.93-0.06-3.1,1.09-3.26,3c-0.16,1.99,0.98,3.17,2.89,3.26C392.58-6.4,393.77-7.43,393.94-9.47z M367.58-9.65
			c-0.32-1.89-1.23-3.2-3.24-3.11c-1.92,0.09-3.08,1.28-3.09,3.2c-0.01,1.98,1.18,3.02,3.16,2.99
			C366.42-6.6,367.32-7.84,367.58-9.65z M377.6-12.83c-1.97,0.28-3.05,1.34-3.02,3.31c0.02,2.03,1.09,3.03,3.14,2.88
			c1.95-0.14,3.12-1.17,3.04-3.16C380.67-11.72,379.51-12.76,377.6-12.83z"/>
		<path class="st8" d="M235.78-1.84c-1.85,1.69-4.13,0.93-6.2,0.93c-33.92,0.07-67.83,0.06-101.75,0.07
			c-0.06-3.82-0.04-7.65-0.21-11.46c-0.19-4.41,1.76-6.47,6.2-6.38c4.82,0.1,9.65,0.01,14.47,0.01c28.78,0,57.55,0,86.33,0
			c-0.34,3.66,0.81,6.31,4.78,7.05c-0.02,0.93-0.05,1.85-0.08,2.78C235.89-7.64,235.09-5.12,235.78-1.84z"/>
		<path class="st12" d="M239.33-8.83c0.03-0.93,0.05-1.85,0.08-2.78c4.2-2.1,8.9-1.83,13.36-2.64c11.3-2.05,22.67-3.77,34.01-5.61
			c0,0.35,0.01,0.7,0.01,1.05c-1,0.75-2.37,1.27-1.81,2.97c-1.81,0.21-3.63,0.34-5.42,0.63C266.14-13.11,252.73-10.97,239.33-8.83z"
			/>
		<path class="st4" d="M242.01-84.87c12.38,0,24.29,0.13,36.2-0.07c4.21-0.07,5,0.84,2.89,4.64c-6.06,10.95-7.49,23.19-9.19,35.29
			c-0.53,3.75-2.02,5.39-5.68,5.24c-0.83-0.03-1.66,0-2.49,0c-10.7,0.03-10.98,0-11.88-10.46c-0.99-11.55-4.17-22.4-9.19-32.77
			C242.4-83.58,242.24-84.21,242.01-84.87z"/>
		<path class="st6" d="M277.68-35.94c-4.36-2.37-9.3,0.43-13.7-1.54c6.91-0.44,13.83-0.46,20.74-0.05
			C282.45-36.7,280.18-35.82,277.68-35.94z"/>
		<path class="st1" d="M375.58-70.16c3.04,0.13,4.5,1.76,4.31,4.75c-0.17,2.66-1.67,4.42-4.36,4.35c-3.13-0.09-4.8-2.14-4.64-5.19
			C371.03-68.98,372.84-70.26,375.58-70.16z"/>
		<path class="st12" d="M298.77,217.18c-1.61-0.1-2.74-0.88-3.49-2.7c2.37-0.44,3.27,0.66,3.53,2.67
			C298.8,217.15,298.77,217.18,298.77,217.18z"/>
		<path class="st8" d="M203.8,69.84c0,11.99-0.13,23.98,0.06,35.96c0.07,4.76-1.81,6.53-6.52,6.46
			c-12.48-0.18-24.97-0.17-37.46-0.01c-4.57,0.06-6.17-1.88-6.15-6.3c0.1-23.81,0.11-47.62-0.02-71.42
			c-0.03-4.73,1.78-6.54,6.51-6.47c12.65,0.18,25.31,0.22,37.96-0.01c4.45-0.08,5.77,1.57,5.69,5.84
			C203.67,45.87,203.8,57.86,203.8,69.84z"/>
		<path class="st8" d="M374.83,69.91c0,11.83,0.02,23.66,0,35.49c-0.01,5.89-0.86,6.77-6.57,6.79c-12.33,0.03-24.66-0.15-36.99,0.09
			c-4.96,0.1-6.49-2.24-6.49-6.62c0.02-23.66,0.01-47.32,0-70.98c0-4.35,1.49-6.74,6.47-6.64c12.66,0.25,25.33,0.25,37.99,0.01
			c4.5-0.08,5.73,1.65,5.66,5.88C374.69,45.92,374.82,57.92,374.83,69.91z"/>
		<path class="st5" d="M284.65-4.94c1.6,1.27,3.05,2.61,1.93,4.94c-0.67,0.73-1.35,1.46-2.02,2.19c-5.57-1.26-10.62,1.57-15.99,2.04
			c-6.08,0.54-12.12,1.64-18.76,2.58c2.04,1.91,3.77,1.29,5.32,1.31c6.16,0.07,12.33,0,18.5,0.01c1.96,0,4.12-0.41,5.15,2.01
			c-0.43,0.93-0.86,1.87-1.28,2.8c-1.59,1.3-3.18,2.59-4.77,3.89c-6.44,2.8-13.12,1.47-19.75,1.16c-1.1-2.67-4.17-2.93-5.89-4.85
			c-1.3-2.09-2.39-4.25-5.16-5c-4.74-1.28-4.95-2.46-1.53-6.57c1.8-0.29,3.6-0.6,5.4-0.88C258.74-1.3,271.56-4.03,284.65-4.94z"/>
		<path class="st8" d="M272.73,16.84c1.59-1.3,3.18-2.59,4.77-3.89c3.51,1.57,7.28,0.91,10.91,1.08c7.07,0.32,14.14-0.42,21.26-0.07
			c7.58,0.38,15.22-0.03,22.85-0.51c13.4-0.85,26.84,1.32,40.3,0.68c1.15-0.05,2.57-0.08,2.71,1.48c0.14,1.62-1.02,2.35-2.53,2.45
			c-1.33,0.09-2.66,0.07-3.99,0.07c-30.26,0.01-60.52,0.02-90.78-0.03C276.36,18.1,274.17,18.93,272.73,16.84z"/>
		<path class="st8" d="M247.09,13.15c1.72,1.91,4.79,2.18,5.89,4.85c-31.78,0.05-63.55,0.1-95.33,0.12c-1.55,0-3.75,0.52-3.69-2.06
			c0.06-2.59,2.3-1.91,3.8-1.92c9.92-0.06,19.84-0.03,29.76-0.03c17.07,0,34.15-0.03,51.22,0.04
			C241.59,14.15,244.35,13.89,247.09,13.15z"/>
		<path class="st5" d="M239.33-8.83c13.41-2.14,26.81-4.28,40.22-6.4c1.8-0.28,3.61-0.42,5.42-0.63c4.56,2.37,4.12,4.72-0.02,7.06
			c-11.04,1.82-22.11,3.5-33.11,5.52c-3.94,0.72-8.43-0.47-11.74,2.9c-1.26-1.03-2.66-1.61-4.32-1.47
			C235.09-5.12,235.89-7.64,239.33-8.83z"/>
		<path class="st8" d="M208.5,28.58c36.84,0,73.69,0,110.53,0c0,0.33,0,0.65,0.01,0.98c-36.85,0-73.69,0-110.54,0
			C208.5,29.23,208.5,28.91,208.5,28.58z"/>
		<path class="st8" d="M217.76,42.33c-2.75-0.47-5.63,0.48-8.31-1.47c36.53,0,73.06,0,109.6,0c0.01,0.49,0.01,0.98,0.02,1.47
			c-33.08,0-66.16,0-99.25,0C219.12,42.33,218.44,42.33,217.76,42.33z"/>
		<path class="st8" d="M209.49,65.63c36.52,0,73.03,0,109.55,0c0,0.33,0,0.66,0.01,0.99c-36.52,0-73.04,0-109.56,0
			C209.49,66.29,209.49,65.96,209.49,65.63z"/>
		<path class="st8" d="M319.04,54.69c-36.51,0-73.02,0-109.54,0c0-0.33,0-0.66-0.01-1c36.51,0,73.03,0,109.54,0
			C319.03,54.03,319.03,54.36,319.04,54.69z"/>
		<path class="st8" d="M209.49,59.6c36.48,0,72.95,0,109.43,0C316.29,61.43,218.05,62.27,209.49,59.6z"/>
		<path class="st8" d="M318.11,35.72c-36.2,0-72.4,0-108.6,0c0-0.33,0-0.66-0.01-0.99c36.2,0,72.4,0,108.6,0
			C318.11,35.06,318.11,35.39,318.11,35.72z"/>
		<path class="st6" d="M240.1-0.37c3.31-3.37,7.79-2.17,11.74-2.9c11-2.02,22.07-3.71,33.11-5.52c-0.1,1.29-0.2,2.57-0.29,3.86
			c-13.09,0.9-25.91,3.64-38.84,5.63c-1.8,0.28-3.6,0.59-5.4,0.88C240.3,0.93,240.2,0.28,240.1-0.37z"/>
		<path class="st12" d="M278.78,10.15c-1.03-2.42-3.18-2.01-5.15-2.01c-6.17-0.01-12.33,0.06-18.5-0.01
			c-1.55-0.02-3.28,0.6-5.32-1.31c6.64-0.94,12.67-2.04,18.76-2.58c5.37-0.47,10.42-3.3,15.99-2.04
			C284.6,6.28,281.22,7.87,278.78,10.15z"/>
		<path class="st8" d="M267.58,78.98c-1.93,1.8-3.83,1.11-5.53,1.11c-15.81,0.06-31.62,0.08-47.43-0.01c-1.79-0.01-5.21,1-5.1-1.11
			c0.16-3.07,3.22-0.76,4.91-0.77c15.81-0.13,31.62-0.09,47.43-0.05C263.63,78.16,265.5,77.64,267.58,78.98z"/>
		<path class="st8" d="M317.79,73c-35.66,0-71.33,0-106.99,0c0-0.19,0-0.38,0-0.58c35.59,0,71.18,0,106.77,0
			C317.64,72.61,317.71,72.81,317.79,73z"/>
		<path class="st8" d="M219.81,46.99c32.62,0,65.23,0,97.85,0c0,0.3,0,0.59,0,0.89c-35.59,0-71.19,0-106.78,0
			c-0.02-0.17-0.04-0.34-0.05-0.51c2.31-0.13,4.62-0.25,6.93-0.37C218.44,46.99,219.13,46.99,219.81,46.99z"/>
		<path class="st11" d="M393.94-9.47c-0.17,2.04-1.36,3.07-3.26,2.97c-1.92-0.1-3.05-1.28-2.89-3.26c0.15-1.91,1.33-3.05,3.26-3
			C393.06-12.7,393.82-11.29,393.94-9.47z"/>
		<path class="st11" d="M367.58-9.65c-0.26,1.81-1.16,3.04-3.17,3.08c-1.98,0.03-3.17-1.01-3.16-2.99c0.01-1.92,1.17-3.12,3.09-3.2
			C366.35-12.85,367.26-11.53,367.58-9.65z"/>
		<path class="st11" d="M377.6-12.83c1.91,0.07,3.07,1.1,3.16,3.03c0.09,1.99-1.09,3.02-3.04,3.16c-2.05,0.15-3.12-0.86-3.14-2.88
			C374.55-11.48,375.63-12.55,377.6-12.83z"/>
	</g>
</g>
</svg>
